<?xml version="1.0" standalone="yes"?>

<svg version="1.1" viewBox="0.0 0.0 798.2834645669292 410.3622047244094" fill="none" stroke="none" stroke-linecap="square" stroke-miterlimit="10" xmlns="http://www.w3.org/2000/svg" xmlns:xlink="http://www.w3.org/1999/xlink"><clipPath id="p.0"><path d="m0 0l798.28345 0l0 410.3622l-798.28345 0l0 -410.3622z" clip-rule="nonzero"></path></clipPath><g clip-path="url(#p.0)"><path fill="#000000" fill-opacity="0.0" d="m0 0l798.28345 0l0 410.3622l-798.28345 0z" fill-rule="nonzero"></path><path shape-rendering="crispEdges" fill="#b7b7b7" d="m73.69029 89.91601l87.895004 0l0 50.674538l-87.895004 0l0 -50.674538z" fill-rule="nonzero"></path><path stroke="#000000" stroke-width="2.0" stroke-linecap="butt" d="m73.69029 88.91601l0 253.43045" fill-rule="nonzero"></path><path stroke="#000000" stroke-width="2.0" stroke-linecap="butt" d="m161.5853 88.91601l0 253.43045" fill-rule="nonzero"></path><path stroke="#000000" stroke-width="2.0" stroke-linecap="butt" d="m72.69029 89.91601l89.895004 0" fill-rule="nonzero"></path><path stroke="#000000" stroke-width="2.0" stroke-linecap="butt" d="m72.69029 140.59055l89.895004 0" fill-rule="nonzero"></path><path stroke="#000000" stroke-width="2.0" stroke-linecap="butt" d="m72.69029 190.77953l89.895004 0" fill-rule="nonzero"></path><path stroke="#000000" stroke-width="2.0" stroke-linecap="butt" d="m72.69029 240.9685l89.895004 0" fill-rule="nonzero"></path><path stroke="#000000" stroke-width="2.0" stroke-linecap="butt" d="m72.69029 291.15747l89.895004 0" fill-rule="nonzero"></path><path stroke="#000000" stroke-width="2.0" stroke-linecap="butt" d="m72.69029 341.34647l89.895004 0" fill-rule="nonzero"></path><path fill="#000000" d="m91.059654 119.8139l2.890625 0l0 -7.671875l-2.890625 0l0 -2.359375l8.59375 0l0 2.359375l-2.890625 0l0 7.671875l2.890625 0l0 2.359375l-8.59375 0l0 -2.359375zm11.162506 -7.0625l2.265625 0l0.21875 1.25l0.078125 0q0.609375 -0.609375 1.390625 -1.046875q0.796875 -0.4375 1.859375 -0.4375q1.59375 0 2.328125 1.03125q0.75 1.03125 0.75 2.8125l0 5.8125l-2.796875 0l0 -5.453125q0 -0.953125 -0.3125 -1.390625q-0.296875 -0.4375 -1.078125 -0.4375q-0.5625 0 -1.0 0.25q-0.421875 0.25 -0.921875 0.75l0 6.28125l-2.78125 0l0 -9.421875zm10.709381 4.703125q0 -1.15625 0.34375 -2.0625q0.34375 -0.90625 0.90625 -1.546875q0.5625 -0.640625 1.28125 -0.984375q0.71875 -0.34375 1.5 -0.34375q0.8125 0 1.359375 0.28125q0.5625 0.28125 1.046875 0.734375l-0.09375 -1.46875l0 -3.203125l2.796875 0l0 13.3125l-2.28125 0l-0.203125 -0.96875l-0.0625 0q-0.53125 0.515625 -1.21875 0.859375q-0.671875 0.34375 -1.40625 0.34375q-0.890625 0 -1.625 -0.34375q-0.71875 -0.34375 -1.25 -0.984375q-0.515625 -0.640625 -0.8125 -1.546875q-0.28125 -0.90625 -0.28125 -2.078125zm2.875 -0.03125q0 1.40625 0.46875 2.0625q0.484375 0.640625 1.359375 0.640625q0.46875 0 0.859375 -0.203125q0.40625 -0.203125 0.78125 -0.671875l0 -3.828125q-0.375 -0.34375 -0.765625 -0.484375q-0.390625 -0.140625 -0.8125 -0.140625q-0.765625 0 -1.328125 0.65625q-0.5625 0.640625 -0.5625 1.96875zm8.475006 0.03125q0 -1.15625 0.40625 -2.0625q0.40625 -0.90625 1.09375 -1.546875q0.6875 -0.640625 1.5625 -0.984375q0.8906326 -0.34375 1.8437576 -0.34375q1.078125 0 1.90625 0.34375q0.84375 0.34375 1.390625 0.953125q0.546875 0.609375 0.828125 1.4375q0.296875 0.828125 0.296875 1.796875q0 0.375 -0.046875 0.71875q-0.03125 0.34375 -0.0625 0.515625l-6.3593826 0q0.15625 1.0625 0.9218826 1.53125q0.78125 0.453125 1.828125 0.453125q0.640625 0 1.21875 -0.15625q0.578125 -0.15625 1.203125 -0.484375l0.921875 1.671875q-0.796875 0.515625 -1.796875 0.8125q-0.984375 0.296875 -1.9375 0.296875q-1.09375 0 -2.0468826 -0.328125q-0.953125 -0.34375 -1.65625 -0.96875q-0.703125 -0.640625 -1.109375 -1.546875q-0.40625 -0.921875 -0.40625 -2.109375zm6.7968826 -1.015625q0 -0.796875 -0.4375 -1.296875q-0.4375 -0.5 -1.40625 -0.5q-0.75 0 -1.3437576 0.4375q-0.59375 0.4375 -0.78125 1.359375l3.9687576 0zm7.318756 0.828125l-3.0625 -4.515625l3.0 0l0.984375 1.515625q0.203125 0.40625 0.46875 0.8125q0.265625 0.40625 0.515625 0.8125l0.078125 0q0.1875 -0.40625 0.375 -0.828125q0.203125 -0.421875 0.390625 -0.796875l0.84375 -1.515625l2.921875 0l-3.078125 4.84375l3.265625 4.578125l-3.0 0l-1.078125 -1.5625q-0.265625 -0.390625 -0.546875 -0.8125q-0.265625 -0.421875 -0.53125 -0.8125l-0.078125 0q-0.21875 0.390625 -0.453125 0.8125q-0.21875 0.40625 -0.421875 0.8125l-0.9375 1.5625l-2.921875 0l3.265625 -4.90625z" fill-rule="nonzero"></path><path fill="#000000" d="m117.74404 172.83942q-2.03125 0 -3.203125 -1.640625q-1.15625 -1.65625 -1.15625 -4.6875q0 -3.0625 1.15625 -4.65625q1.171875 -1.59375 3.203125 -1.59375q2.03125 0 3.1875 1.59375q1.15625 1.59375 1.15625 4.65625q0 3.03125 -1.15625 4.6875q-1.15625 1.640625 -3.1875 1.640625zm0 -11.328125q-0.625 0 -1.15625 0.28125q-0.53125 0.28125 -0.921875 0.90625q-0.390625 0.609375 -0.609375 1.5625q-0.203125 0.9375 -0.203125 2.25q0 2.59375 0.796875 3.828125q0.8125 1.234375 2.09375 1.234375q1.265625 0 2.078125 -1.234375q0.8125 -1.234375 0.8125 -3.828125q0 -1.3125 -0.21875 -2.25q-0.203125 -0.953125 -0.59375 -1.5625q-0.390625 -0.625 -0.921875 -0.90625q-0.53125 -0.28125 -1.15625 -0.28125zm0 6.140625q-0.484375 0 -0.84375 -0.328125q-0.34375 -0.34375 -0.34375 -0.953125q0 -0.59375 0.34375 -0.921875q0.359375 -0.328125 0.84375 -0.328125q0.46875 0 0.8125 0.328125q0.359375 0.328125 0.359375 0.921875q0 0.609375 -0.359375 0.953125q-0.34375 0.328125 -0.8125 0.328125z" fill-rule="nonzero"></path><path fill="#000000" d="m122.07217 221.49715l0 1.296875l-8.171875 0l0 -1.296875l3.4375 0l0 -8.921875l-2.578125 0l0 -1.015625q0.96875 -0.140625 1.6875 -0.359375q0.71875 -0.21875 1.296875 -0.53125l1.15625 0l0 10.828125l3.171875 0z" fill-rule="nonzero"></path><path fill="#000000" d="m113.43154 272.0455q1.53125 -1.359375 2.71875 -2.453125q1.1875 -1.109375 2.0 -2.03125q0.8125 -0.921875 1.21875 -1.71875q0.421875 -0.796875 0.421875 -1.5625q0 -1.046875 -0.65625 -1.703125q-0.640625 -0.671875 -1.984375 -0.671875q-0.859375 0 -1.59375 0.4375q-0.71875 0.421875 -1.3125 1.03125l-0.890625 -0.890625q0.8125 -0.84375 1.75 -1.34375q0.953125 -0.5 2.234375 -0.5q0.921875 0 1.640625 0.25q0.734375 0.25 1.25 0.71875q0.515625 0.46875 0.78125 1.140625q0.28125 0.65625 0.28125 1.453125q0 0.859375 -0.40625 1.734375q-0.40625 0.859375 -1.15625 1.78125q-0.734375 0.921875 -1.765625 1.921875q-1.015625 0.984375 -2.25 2.109375q0.546875 -0.03125 1.125 -0.0625q0.578125 -0.046875 1.125 -0.046875l4.0 0l0 1.34375l-8.53125 0l0 -0.9375z" fill-rule="nonzero"></path><path fill="#000000" d="m113.91592 320.65634q0.609375 0.578125 1.453125 1.015625q0.859375 0.4375 2.03125 0.4375q0.625 0 1.15625 -0.15625q0.53125 -0.171875 0.921875 -0.453125q0.390625 -0.28125 0.609375 -0.6875q0.21875 -0.421875 0.21875 -0.921875q0 -0.53125 -0.234375 -0.984375q-0.234375 -0.453125 -0.78125 -0.765625q-0.53125 -0.328125 -1.375 -0.5q-0.828125 -0.171875 -2.015625 -0.171875l0 -1.1875q1.078125 0 1.828125 -0.171875q0.75 -0.171875 1.21875 -0.46875q0.484375 -0.3125 0.703125 -0.734375q0.21875 -0.421875 0.21875 -0.890625q0 -0.890625 -0.671875 -1.40625q-0.671875 -0.515625 -1.796875 -0.515625q-0.859375 0 -1.625 0.34375q-0.75 0.34375 -1.359375 0.890625l-0.84375 -0.984375q0.765625 -0.671875 1.734375 -1.09375q0.96875 -0.421875 2.15625 -0.421875q0.84375 0 1.578125 0.203125q0.734375 0.203125 1.265625 0.59375q0.546875 0.390625 0.84375 0.96875q0.3125 0.5625 0.3125 1.3125q0 1.09375 -0.71875 1.796875q-0.71875 0.703125 -1.859375 1.078125l0 0.078125q0.609375 0.140625 1.140625 0.40625q0.546875 0.25 0.953125 0.640625q0.421875 0.375 0.65625 0.890625q0.25 0.515625 0.25 1.140625q0 0.796875 -0.34375 1.453125q-0.34375 0.640625 -0.9375 1.09375q-0.59375 0.4375 -1.40625 0.6875q-0.796875 0.234375 -1.703125 0.234375q-1.578125 0 -2.640625 -0.515625q-1.0625 -0.53125 -1.734375 -1.203125l0.796875 -1.03125z" fill-rule="nonzero"></path><path shape-rendering="crispEdges" fill="#b7b7b7" d="m237.40158 89.91601l116.34909 0l0 50.674538l-116.34909 0l0 -50.674538z" fill-rule="nonzero"></path><path stroke="#000000" stroke-width="2.0" stroke-linecap="butt" d="m237.40158 88.91601l0 253.43045" fill-rule="nonzero"></path><path stroke="#000000" stroke-width="2.0" stroke-linecap="butt" d="m353.75067 88.91601l0 253.43045" fill-rule="nonzero"></path><path stroke="#000000" stroke-width="2.0" stroke-linecap="butt" d="m236.40158 89.91601l118.34909 0" fill-rule="nonzero"></path><path stroke="#000000" stroke-width="2.0" stroke-linecap="butt" d="m236.40158 140.59055l118.34909 0" fill-rule="nonzero"></path><path stroke="#000000" stroke-width="2.0" stroke-linecap="butt" d="m236.40158 190.77953l118.34909 0" fill-rule="nonzero"></path><path stroke="#000000" stroke-width="2.0" stroke-linecap="butt" d="m236.40158 240.9685l118.34909 0" fill-rule="nonzero"></path><path stroke="#000000" stroke-width="2.0" stroke-linecap="butt" d="m236.40158 291.15747l118.34909 0" fill-rule="nonzero"></path><path stroke="#000000" stroke-width="2.0" stroke-linecap="butt" d="m236.40158 341.34647l118.34909 0" fill-rule="nonzero"></path><path fill="#000000" d="m252.03546 109.78265l3.359375 0q1.359375 0 2.453125 0.359375q1.109375 0.359375 1.875 1.109375q0.78125 0.75 1.203125 1.921875q0.4375 1.15625 0.4375 2.75q0 1.59375 -0.4375 2.78125q-0.421875 1.171875 -1.1875 1.9375q-0.765625 0.765625 -1.828125 1.15625q-1.0625 0.375 -2.359375 0.375l-3.515625 0l0 -12.390625zm3.21875 10.125q0.71875 0 1.3125 -0.203125q0.59375 -0.203125 1.015625 -0.671875q0.4375 -0.46875 0.671875 -1.21875q0.234375 -0.765625 0.234375 -1.890625q0 -1.109375 -0.234375 -1.859375q-0.234375 -0.75 -0.671875 -1.1875q-0.421875 -0.453125 -1.015625 -0.640625q-0.59375 -0.1875 -1.3125 -0.1875l-0.40625 0l0 7.859375l0.40625 0zm7.896881 -0.359375q0 -0.796875 0.34375 -1.390625q0.34375 -0.59375 1.09375 -1.015625q0.75 -0.421875 1.921875 -0.671875q1.1875 -0.265625 2.859375 -0.359375q-0.078125 -0.640625 -0.5625 -1.0q-0.484375 -0.359375 -1.453125 -0.359375q-0.6875 0 -1.390625 0.234375q-0.6875 0.234375 -1.484375 0.625l-0.984375 -1.8125q0.96875 -0.5625 2.078125 -0.921875q1.109375 -0.359375 2.328125 -0.359375q1.984375 0 3.125 1.046875q1.140625 1.046875 1.140625 3.21875l0 5.390625l-2.28125 0l-0.21875 -1.0625l-0.078125 0q-0.71875 0.546875 -1.578125 0.921875q-0.84375 0.375 -1.765625 0.375q-0.71875 0 -1.296875 -0.21875q-0.5625 -0.21875 -0.96875 -0.609375q-0.390625 -0.390625 -0.609375 -0.90625q-0.21875 -0.515625 -0.21875 -1.125zm2.6875 -0.203125q0 0.453125 0.34375 0.671875q0.359375 0.21875 0.96875 0.21875q0.625 0 1.171875 -0.25q0.546875 -0.265625 1.046875 -0.640625l0 -1.5625q-1.046875 0.0625 -1.734375 0.203125q-0.6875 0.125 -1.09375 0.328125q-0.390625 0.1875 -0.546875 0.453125q-0.15625 0.265625 -0.15625 0.578125zm10.662506 -4.40625l-2.375 0l0 -2.078125l2.5 -0.109375l0.359375 -2.515625l2.296875 0l0 2.515625l4.0 0l0 2.1875l-4.0 0l0 3.296875q0 1.09375 0.46875 1.546875q0.484375 0.4375 1.515625 0.4375q0.546875 0 1.0 -0.09375q0.453125 -0.09375 0.875 -0.25l0.5 2.015625q-0.625 0.1875 -1.40625 0.34375q-0.765625 0.171875 -1.671875 0.171875q-1.125 0 -1.90625 -0.296875q-0.78125 -0.3125 -1.265625 -0.859375q-0.484375 -0.546875 -0.6875 -1.296875q-0.203125 -0.765625 -0.203125 -1.6875l0 -3.328125zm9.037506 4.609375q0 -0.796875 0.34375 -1.390625q0.34375 -0.59375 1.09375 -1.015625q0.75 -0.421875 1.921875 -0.671875q1.1875 -0.265625 2.859375 -0.359375q-0.078125 -0.640625 -0.5625 -1.0q-0.484375 -0.359375 -1.453125 -0.359375q-0.6875 0 -1.390625 0.234375q-0.6875 0.234375 -1.484375 0.625l-0.984375 -1.8125q0.96875 -0.5625 2.078125 -0.921875q1.109375 -0.359375 2.328125 -0.359375q1.984375 0 3.125 1.046875q1.140625 1.046875 1.140625 3.21875l0 5.390625l-2.28125 0l-0.21875 -1.0625l-0.078125 0q-0.71875 0.546875 -1.578125 0.921875q-0.84375 0.375 -1.765625 0.375q-0.71875 0 -1.296875 -0.21875q-0.5625 -0.21875 -0.96875 -0.609375q-0.390625 -0.390625 -0.609375 -0.90625q-0.21875 -0.515625 -0.21875 -1.125zm2.6875 -0.203125q0 0.453125 0.34375 0.671875q0.359375 0.21875 0.96875 0.21875q0.625 0 1.171875 -0.25q0.546875 -0.265625 1.046875 -0.640625l0 -1.5625q-1.046875 0.0625 -1.734375 0.203125q-0.6875 0.125 -1.09375 0.328125q-0.390625 0.1875 -0.546875 0.453125q-0.15625 0.265625 -0.15625 0.578125zm23.090637 -8.9375q-1.015625 0.453125 -1.546875 1.109375q-0.515625 0.640625 -0.578125 1.5625q0.1875 -0.0625 0.390625 -0.0625q0.765625 0 1.25 0.46875q0.484375 0.453125 0.484375 1.265625q0 0.859375 -0.515625 1.390625q-0.515625 0.515625 -1.3125 0.515625q-1.0625 0 -1.640625 -0.796875q-0.578125 -0.796875 -0.578125 -2.234375q0 -1.5625 0.828125 -2.75q0.828125 -1.1875 2.5 -1.953125l0.71875 1.484375zm6.0 0q-1.015625 0.453125 -1.546875 1.109375q-0.515625 0.640625 -0.578125 1.5625q0.1875 -0.0625 0.390625 -0.0625q0.765625 0 1.25 0.46875q0.484375 0.453125 0.484375 1.265625q0 0.859375 -0.515625 1.390625q-0.515625 0.515625 -1.3125 0.515625q-1.0625 0 -1.640625 -0.796875q-0.578125 -0.796875 -0.578125 -2.234375q0 -1.5625 0.828125 -2.75q0.828125 -1.1875 2.5 -1.953125l0.71875 1.484375zm4.615631 6.859375l-3.0625 -4.515625l3.0 0l0.984375 1.515625q0.203125 0.40625 0.46875 0.8125q0.265625 0.40625 0.515625 0.8125l0.078125 0q0.1875 -0.40625 0.375 -0.828125q0.203125 -0.421875 0.390625 -0.796875l0.84375 -1.515625l2.921875 0l-3.078125 4.84375l3.265625 4.578125l-3.0 0l-1.078125 -1.5625q-0.265625 -0.390625 -0.546875 -0.8125q-0.265625 -0.421875 -0.53125 -0.8125l-0.078125 0q-0.21875 0.390625 -0.453125 0.8125q-0.21875 0.40625 -0.421875 0.8125l-0.9375 1.5625l-2.921875 0l3.265625 -4.90625zm8.068756 -2.078125q1.984375 -0.90625 2.125 -2.65625q-0.21875 0.0625 -0.375 0.0625q-0.78125 0 -1.265625 -0.46875q-0.484375 -0.484375 -0.484375 -1.28125q0 -0.875 0.5 -1.390625q0.515625 -0.53125 1.3125 -0.53125q1.09375 0 1.65625 0.8125q0.578125 0.8125 0.578125 2.234375q0 1.5625 -0.828125 2.75q-0.8125 1.1875 -2.484375 1.9375l-0.734375 -1.46875zm6.0 0q1.984375 -0.90625 2.125 -2.65625q-0.21875 0.0625 -0.375 0.0625q-0.78125 0 -1.265625 -0.46875q-0.484375 -0.484375 -0.484375 -1.28125q0 -0.875 0.5 -1.390625q0.515625 -0.53125 1.3125 -0.53125q1.09375 0 1.65625 0.8125q0.578125 0.8125 0.578125 2.234375q0 1.5625 -0.828125 2.75q-0.8125 1.1875 -2.484375 1.9375l-0.734375 -1.46875z" fill-rule="nonzero"></path><path fill="#000000" d="m289.11673 167.82379l-3.25 -4.453125l1.734375 0l1.453125 2.03125q0.25 0.375 0.515625 0.78125q0.28125 0.40625 0.5625 0.78125l0.078125 0q0.265625 -0.375 0.53125 -0.796875q0.265625 -0.421875 0.515625 -0.796875l1.390625 -2.0l1.65625 0l-3.296875 4.578125l3.546875 4.65625l-1.71875 0l-1.609375 -2.125q-0.28125 -0.40625 -0.609375 -0.84375q-0.3125 -0.4375 -0.609375 -0.828125l-0.078125 0q-0.28125 0.421875 -0.578125 0.828125q-0.28125 0.40625 -0.5625 0.84375l-1.515625 2.125l-1.671875 0l3.515625 -4.78125zm12.162506 5.015625q-2.03125 0 -3.203125 -1.640625q-1.15625 -1.65625 -1.15625 -4.6875q0 -3.0625 1.15625 -4.65625q1.171875 -1.59375 3.203125 -1.59375q2.03125 0 3.1875 1.59375q1.15625 1.59375 1.15625 4.65625q0 3.03125 -1.15625 4.6875q-1.15625 1.640625 -3.1875 1.640625zm0 -11.328125q-0.625 0 -1.15625 0.28125q-0.53125 0.28125 -0.921875 0.90625q-0.390625 0.609375 -0.609375 1.5625q-0.203125 0.9375 -0.203125 2.25q0 2.59375 0.796875 3.828125q0.8125 1.234375 2.09375 1.234375q1.265625 0 2.078125 -1.234375q0.8125 -1.234375 0.8125 -3.828125q0 -1.3125 -0.21875 -2.25q-0.203125 -0.953125 -0.59375 -1.5625q-0.390625 -0.625 -0.921875 -0.90625q-0.53125 -0.28125 -1.15625 -0.28125zm0 6.140625q-0.484375 0 -0.84375 -0.328125q-0.34375 -0.34375 -0.34375 -0.953125q0 -0.59375 0.34375 -0.921875q0.359375 -0.328125 0.84375 -0.328125q0.46875 0 0.8125 0.328125q0.359375 0.328125 0.359375 0.921875q0 0.609375 -0.359375 0.953125q-0.34375 0.328125 -0.8125 0.328125z" fill-rule="nonzero"></path><path fill="#000000" d="m289.11673 218.01277l-3.25 -4.453125l1.734375 0l1.453125 2.03125q0.25 0.375 0.515625 0.78125q0.28125 0.40625 0.5625 0.78125l0.078125 0q0.265625 -0.375 0.53125 -0.796875q0.265625 -0.421875 0.515625 -0.796875l1.390625 -2.0l1.65625 0l-3.296875 4.578125l3.546875 4.65625l-1.71875 0l-1.609375 -2.125q-0.28125 -0.40625 -0.609375 -0.84375q-0.3125 -0.4375 -0.609375 -0.828125l-0.078125 0q-0.28125 0.421875 -0.578125 0.828125q-0.28125 0.40625 -0.5625 0.84375l-1.515625 2.125l-1.671875 0l3.515625 -4.78125zm16.490631 3.484375l0 1.296875l-8.171875 0l0 -1.296875l3.4375 0l0 -8.921875l-2.578125 0l0 -1.015625q0.96875 -0.140625 1.6875 -0.359375q0.71875 -0.21875 1.296875 -0.53125l1.15625 0l0 10.828125l3.171875 0z" fill-rule="nonzero"></path><path fill="#000000" d="m289.11673 268.20175l-3.25 -4.453125l1.734375 0l1.453125 2.03125q0.25 0.375 0.515625 0.78125q0.28125 0.40625 0.5625 0.78125l0.078125 0q0.265625 -0.375 0.53125 -0.796875q0.265625 -0.421875 0.515625 -0.796875l1.390625 -2.0l1.65625 0l-3.296875 4.578125l3.546875 4.65625l-1.71875 0l-1.609375 -2.125q-0.28125 -0.40625 -0.609375 -0.84375q-0.3125 -0.4375 -0.609375 -0.828125l-0.078125 0q-0.28125 0.421875 -0.578125 0.828125q-0.28125 0.40625 -0.5625 0.84375l-1.515625 2.125l-1.671875 0l3.515625 -4.78125zm7.850006 3.84375q1.53125 -1.359375 2.71875 -2.453125q1.1875 -1.109375 2.0 -2.03125q0.8125 -0.921875 1.21875 -1.71875q0.421875 -0.796875 0.421875 -1.5625q0 -1.046875 -0.65625 -1.703125q-0.640625 -0.671875 -1.984375 -0.671875q-0.859375 0 -1.59375 0.4375q-0.71875 0.421875 -1.3125 1.03125l-0.890625 -0.890625q0.8125 -0.84375 1.75 -1.34375q0.953125 -0.5 2.234375 -0.5q0.921875 0 1.640625 0.25q0.734375 0.25 1.25 0.71875q0.515625 0.46875 0.78125 1.140625q0.28125 0.65625 0.28125 1.453125q0 0.859375 -0.40625 1.734375q-0.40625 0.859375 -1.15625 1.78125q-0.734375 0.921875 -1.765625 1.921875q-1.015625 0.984375 -2.25 2.109375q0.546875 -0.03125 1.125 -0.0625q0.578125 -0.046875 1.125 -0.046875l4.0 0l0 1.34375l-8.53125 0l0 -0.9375z" fill-rule="nonzero"></path><path fill="#000000" d="m289.11673 318.39072l-3.25 -4.453125l1.734375 0l1.453125 2.03125q0.25 0.375 0.515625 0.78125q0.28125 0.40625 0.5625 0.78125l0.078125 0q0.265625 -0.375 0.53125 -0.796875q0.265625 -0.421875 0.515625 -0.796875l1.390625 -2.0l1.65625 0l-3.296875 4.578125l3.546875 4.65625l-1.71875 0l-1.609375 -2.125q-0.28125 -0.40625 -0.609375 -0.84375q-0.3125 -0.4375 -0.609375 -0.828125l-0.078125 0q-0.28125 0.421875 -0.578125 0.828125q-0.28125 0.40625 -0.5625 0.84375l-1.515625 2.125l-1.671875 0l3.515625 -4.78125zm8.334381 2.265625q0.609375 0.578125 1.453125 1.015625q0.859375 0.4375 2.03125 0.4375q0.625 0 1.15625 -0.15625q0.53125 -0.171875 0.921875 -0.453125q0.390625 -0.28125 0.609375 -0.6875q0.21875 -0.421875 0.21875 -0.921875q0 -0.53125 -0.234375 -0.984375q-0.234375 -0.453125 -0.78125 -0.765625q-0.53125 -0.328125 -1.375 -0.5q-0.828125 -0.171875 -2.015625 -0.171875l0 -1.1875q1.078125 0 1.828125 -0.171875q0.75 -0.171875 1.21875 -0.46875q0.484375 -0.3125 0.703125 -0.734375q0.21875 -0.421875 0.21875 -0.890625q0 -0.890625 -0.671875 -1.40625q-0.671875 -0.515625 -1.796875 -0.515625q-0.859375 0 -1.625 0.34375q-0.75 0.34375 -1.359375 0.890625l-0.84375 -0.984375q0.765625 -0.671875 1.734375 -1.09375q0.96875 -0.421875 2.15625 -0.421875q0.84375 0 1.578125 0.203125q0.734375 0.203125 1.265625 0.59375q0.546875 0.390625 0.84375 0.96875q0.3125 0.5625 0.3125 1.3125q0 1.09375 -0.71875 1.796875q-0.71875 0.703125 -1.859375 1.078125l0 0.078125q0.609375 0.140625 1.140625 0.40625q0.546875 0.25 0.953125 0.640625q0.421875 0.375 0.65625 0.890625q0.25 0.515625 0.25 1.140625q0 0.796875 -0.34375 1.453125q-0.34375 0.640625 -0.9375 1.09375q-0.59375 0.4375 -1.40625 0.6875q-0.796875 0.234375 -1.703125 0.234375q-1.578125 0 -2.640625 -0.515625q-1.0625 -0.53125 -1.734375 -1.203125l0.796875 -1.03125z" fill-rule="nonzero"></path><path fill="#000000" fill-opacity="0.0" d="m170.24934 214.48819l60.12599 0" fill-rule="nonzero"></path><path stroke="#000000" stroke-width="2.0" stroke-linejoin="round" stroke-linecap="butt" d="m170.24934 214.48819l48.12599 0" fill-rule="evenodd"></path><path fill="#000000" stroke="#000000" stroke-width="2.0" stroke-linecap="butt" d="m218.37534 217.79166l9.076187 -3.3034668l-9.076187 -3.3034668z" fill-rule="evenodd"></path><path shape-rendering="crispEdges" fill="#b7b7b7" d="m395.22046 89.91601l116.34909 0l0 50.674538l-116.34909 0l0 -50.674538z" fill-rule="nonzero"></path><path stroke="#000000" stroke-width="2.0" stroke-linecap="butt" d="m395.22046 88.91601l0 253.43045" fill-rule="nonzero"></path><path stroke="#000000" stroke-width="2.0" stroke-linecap="butt" d="m511.56955 88.91601l0 253.43045" fill-rule="nonzero"></path><path stroke="#000000" stroke-width="2.0" stroke-linecap="butt" d="m394.22046 89.91601l118.34912 0" fill-rule="nonzero"></path><path stroke="#000000" stroke-width="2.0" stroke-linecap="butt" d="m394.22046 140.59055l118.34912 0" fill-rule="nonzero"></path><path stroke="#000000" stroke-width="2.0" stroke-linecap="butt" d="m394.22046 190.77953l118.34912 0" fill-rule="nonzero"></path><path stroke="#000000" stroke-width="2.0" stroke-linecap="butt" d="m394.22046 240.9685l118.34912 0" fill-rule="nonzero"></path><path stroke="#000000" stroke-width="2.0" stroke-linecap="butt" d="m394.22046 291.15747l118.34912 0" fill-rule="nonzero"></path><path stroke="#000000" stroke-width="2.0" stroke-linecap="butt" d="m394.22046 341.34647l118.34912 0" fill-rule="nonzero"></path><path fill="#000000" d="m409.85437 109.78265l3.359375 0q1.359375 0 2.453125 0.359375q1.109375 0.359375 1.875 1.109375q0.78125 0.75 1.203125 1.921875q0.4375 1.15625 0.4375 2.75q0 1.59375 -0.4375 2.78125q-0.421875 1.171875 -1.1875 1.9375q-0.765625 0.765625 -1.828125 1.15625q-1.0625 0.375 -2.359375 0.375l-3.515625 0l0 -12.390625zm3.21875 10.125q0.71875 0 1.3125 -0.203125q0.59375 -0.203125 1.015625 -0.671875q0.4375 -0.46875 0.671875 -1.21875q0.234375 -0.765625 0.234375 -1.890625q0 -1.109375 -0.234375 -1.859375q-0.234375 -0.75 -0.671875 -1.1875q-0.421875 -0.453125 -1.015625 -0.640625q-0.59375 -0.1875 -1.3125 -0.1875l-0.40625 0l0 7.859375l0.40625 0zm7.896881 -0.359375q0 -0.796875 0.34375 -1.390625q0.34375 -0.59375 1.09375 -1.015625q0.75 -0.421875 1.921875 -0.671875q1.1875 -0.265625 2.859375 -0.359375q-0.078125 -0.640625 -0.5625 -1.0q-0.484375 -0.359375 -1.453125 -0.359375q-0.6875 0 -1.390625 0.234375q-0.6875 0.234375 -1.484375 0.625l-0.984375 -1.8125q0.96875 -0.5625 2.078125 -0.921875q1.109375 -0.359375 2.328125 -0.359375q1.984375 0 3.125 1.046875q1.140625 1.046875 1.140625 3.21875l0 5.390625l-2.28125 0l-0.21875 -1.0625l-0.078125 0q-0.71875 0.546875 -1.578125 0.921875q-0.84375 0.375 -1.765625 0.375q-0.71875 0 -1.296875 -0.21875q-0.5625 -0.21875 -0.96875 -0.609375q-0.390625 -0.390625 -0.609375 -0.90625q-0.21875 -0.515625 -0.21875 -1.125zm2.6875 -0.203125q0 0.453125 0.34375 0.671875q0.359375 0.21875 0.96875 0.21875q0.625 0 1.171875 -0.25q0.546875 -0.265625 1.046875 -0.640625l0 -1.5625q-1.046875 0.0625 -1.734375 0.203125q-0.6875 0.125 -1.09375 0.328125q-0.390625 0.1875 -0.546875 0.453125q-0.15625 0.265625 -0.15625 0.578125zm10.662506 -4.40625l-2.375 0l0 -2.078125l2.5 -0.109375l0.359375 -2.515625l2.296875 0l0 2.515625l4.0 0l0 2.1875l-4.0 0l0 3.296875q0 1.09375 0.46875 1.546875q0.484375 0.4375 1.515625 0.4375q0.546875 0 1.0 -0.09375q0.453125 -0.09375 0.875 -0.25l0.5 2.015625q-0.625 0.1875 -1.40625 0.34375q-0.765625 0.171875 -1.671875 0.171875q-1.125 0 -1.90625 -0.296875q-0.78125 -0.3125 -1.265625 -0.859375q-0.484375 -0.546875 -0.6875 -1.296875q-0.203125 -0.765625 -0.203125 -1.6875l0 -3.328125zm9.037506 4.609375q0 -0.796875 0.34375 -1.390625q0.34375 -0.59375 1.09375 -1.015625q0.75 -0.421875 1.921875 -0.671875q1.1875 -0.265625 2.859375 -0.359375q-0.078125 -0.640625 -0.5625 -1.0q-0.484375 -0.359375 -1.453125 -0.359375q-0.6875 0 -1.390625 0.234375q-0.6875 0.234375 -1.484375 0.625l-0.984375 -1.8125q0.96875 -0.5625 2.078125 -0.921875q1.109375 -0.359375 2.328125 -0.359375q1.984375 0 3.125 1.046875q1.140625 1.046875 1.140625 3.21875l0 5.390625l-2.28125 0l-0.21875 -1.0625l-0.078125 0q-0.71875 0.546875 -1.578125 0.921875q-0.84375 0.375 -1.765625 0.375q-0.71875 0 -1.296875 -0.21875q-0.5625 -0.21875 -0.96875 -0.609375q-0.390625 -0.390625 -0.609375 -0.90625q-0.21875 -0.515625 -0.21875 -1.125zm2.6875 -0.203125q0 0.453125 0.34375 0.671875q0.359375 0.21875 0.96875 0.21875q0.625 0 1.171875 -0.25q0.546875 -0.265625 1.046875 -0.640625l0 -1.5625q-1.046875 0.0625 -1.734375 0.203125q-0.6875 0.125 -1.09375 0.328125q-0.390625 0.1875 -0.546875 0.453125q-0.15625 0.265625 -0.15625 0.578125zm23.090637 -8.9375q-1.015625 0.453125 -1.546875 1.109375q-0.515625 0.640625 -0.578125 1.5625q0.1875 -0.0625 0.390625 -0.0625q0.765625 0 1.25 0.46875q0.484375 0.453125 0.484375 1.265625q0 0.859375 -0.515625 1.390625q-0.515625 0.515625 -1.3125 0.515625q-1.0625 0 -1.640625 -0.796875q-0.578125 -0.796875 -0.578125 -2.234375q0 -1.5625 0.828125 -2.75q0.828125 -1.1875 2.5 -1.953125l0.71875 1.484375zm6.0 0q-1.015625 0.453125 -1.546875 1.109375q-0.515625 0.640625 -0.578125 1.5625q0.1875 -0.0625 0.390625 -0.0625q0.765625 0 1.25 0.46875q0.484375 0.453125 0.484375 1.265625q0 0.859375 -0.515625 1.390625q-0.515625 0.515625 -1.3125 0.515625q-1.0625 0 -1.640625 -0.796875q-0.578125 -0.796875 -0.578125 -2.234375q0 -1.5625 0.828125 -2.75q0.828125 -1.1875 2.5 -1.953125l0.71875 1.484375zm2.412506 13.140625q0.359375 0.109375 0.75 0.109375q0.8125 0 1.265625 -0.34375q0.46875 -0.34375 0.703125 -0.890625l0.1875 -0.5l-4.078125 -9.171875l2.765625 0l1.578125 4.046875q0.265625 0.65625 0.484375 1.375q0.234375 0.71875 0.46875 1.453125l0.078125 0q0.1875 -0.703125 0.40625 -1.40625q0.234375 -0.71875 0.453125 -1.421875l1.375 -4.046875l2.640625 0l-3.71875 9.515625q-0.34375 0.890625 -0.75 1.5625q-0.390625 0.6875 -0.90625 1.125q-0.515625 0.453125 -1.1875 0.671875q-0.671875 0.234375 -1.5625 0.234375q-0.421875 0 -0.78125 -0.046875q-0.359375 -0.046875 -0.671875 -0.140625l0.5 -2.125l0 0zm10.271881 -8.359375q1.984375 -0.90625 2.125 -2.65625q-0.21875 0.0625 -0.375 0.0625q-0.78125 0 -1.265625 -0.46875q-0.484375 -0.484375 -0.484375 -1.28125q0 -0.875 0.5 -1.390625q0.515625 -0.53125 1.3125 -0.53125q1.09375 0 1.65625 0.8125q0.578125 0.8125 0.578125 2.234375q0 1.5625 -0.828125 2.75q-0.8125 1.1875 -2.484375 1.9375l-0.734375 -1.46875zm6.0 0q1.984375 -0.90625 2.125 -2.65625q-0.21875 0.0625 -0.375 0.0625q-0.78125 0 -1.265625 -0.46875q-0.484375 -0.484375 -0.484375 -1.28125q0 -0.875 0.5 -1.390625q0.515625 -0.53125 1.3125 -0.53125q1.09375 0 1.65625 0.8125q0.578125 0.8125 0.578125 2.234375q0 1.5625 -0.828125 2.75q-0.8125 1.1875 -2.484375 1.9375l-0.734375 -1.46875z" fill-rule="nonzero"></path><path fill="#000000" d="m443.795 175.15192q0.1875 0.0625 0.40625 0.09375q0.21875 0.03125 0.4375 0.03125q0.96875 0 1.5625 -0.5625q0.609375 -0.546875 0.953125 -1.40625l0.296875 -0.6875l-4.3125 -9.25l1.578125 0l2.25 5.109375q0.265625 0.609375 0.5625 1.3125q0.296875 0.703125 0.578125 1.375l0.078125 0q0.25 -0.671875 0.5 -1.359375q0.265625 -0.703125 0.484375 -1.328125l2.015625 -5.109375l1.484375 0l-4.0625 10.0q-0.265625 0.671875 -0.609375 1.265625q-0.34375 0.59375 -0.828125 1.015625q-0.46875 0.4375 -1.09375 0.671875q-0.609375 0.25 -1.390625 0.25q-0.671875 0 -1.21875 -0.1875l0.328125 -1.234375l0 0zm15.303131 -2.3125q-2.03125 0 -3.203125 -1.640625q-1.15625 -1.65625 -1.15625 -4.6875q0 -3.0625 1.15625 -4.65625q1.171875 -1.59375 3.203125 -1.59375q2.03125 0 3.1875 1.59375q1.15625 1.59375 1.15625 4.65625q0 3.03125 -1.15625 4.6875q-1.15625 1.640625 -3.1875 1.640625zm0 -11.328125q-0.625 0 -1.15625 0.28125q-0.53125 0.28125 -0.921875 0.90625q-0.390625 0.609375 -0.609375 1.5625q-0.203125 0.9375 -0.203125 2.25q0 2.59375 0.796875 3.828125q0.8125 1.234375 2.09375 1.234375q1.265625 0 2.078125 -1.234375q0.8125 -1.234375 0.8125 -3.828125q0 -1.3125 -0.21875 -2.25q-0.203125 -0.953125 -0.59375 -1.5625q-0.390625 -0.625 -0.921875 -0.90625q-0.53125 -0.28125 -1.15625 -0.28125zm0 6.140625q-0.484375 0 -0.84375 -0.328125q-0.34375 -0.34375 -0.34375 -0.953125q0 -0.59375 0.34375 -0.921875q0.359375 -0.328125 0.84375 -0.328125q0.46875 0 0.8125 0.328125q0.359375 0.328125 0.359375 0.921875q0 0.609375 -0.359375 0.953125q-0.34375 0.328125 -0.8125 0.328125z" fill-rule="nonzero"></path><path fill="#000000" d="m443.795 225.3409q0.1875 0.0625 0.40625 0.09375q0.21875 0.03125 0.4375 0.03125q0.96875 0 1.5625 -0.5625q0.609375 -0.546875 0.953125 -1.40625l0.296875 -0.6875l-4.3125 -9.25l1.578125 0l2.25 5.109375q0.265625 0.609375 0.5625 1.3125q0.296875 0.703125 0.578125 1.375l0.078125 0q0.25 -0.671875 0.5 -1.359375q0.265625 -0.703125 0.484375 -1.328125l2.015625 -5.109375l1.484375 0l-4.0625 10.0q-0.265625 0.671875 -0.609375 1.265625q-0.34375 0.59375 -0.828125 1.015625q-0.46875 0.4375 -1.09375 0.671875q-0.609375 0.25 -1.390625 0.25q-0.671875 0 -1.21875 -0.1875l0.328125 -1.234375l0 0zm19.631256 -3.84375l0 1.296875l-8.171875 0l0 -1.296875l3.4375 0l0 -8.921875l-2.578125 0l0 -1.015625q0.96875 -0.140625 1.6875 -0.359375q0.71875 -0.21875 1.296875 -0.53125l1.15625 0l0 10.828125l3.171875 0z" fill-rule="nonzero"></path><path fill="#000000" d="m443.795 275.52988q0.1875 0.0625 0.40625 0.09375q0.21875 0.03125 0.4375 0.03125q0.96875 0 1.5625 -0.5625q0.609375 -0.546875 0.953125 -1.40625l0.296875 -0.6875l-4.3125 -9.25l1.578125 0l2.25 5.109375q0.265625 0.609375 0.5625 1.3125q0.296875 0.703125 0.578125 1.375l0.078125 0q0.25 -0.671875 0.5 -1.359375q0.265625 -0.703125 0.484375 -1.328125l2.015625 -5.109375l1.484375 0l-4.0625 10.0q-0.265625 0.671875 -0.609375 1.265625q-0.34375 0.59375 -0.828125 1.015625q-0.46875 0.4375 -1.09375 0.671875q-0.609375 0.25 -1.390625 0.25q-0.671875 0 -1.21875 -0.1875l0.328125 -1.234375l0 0zm10.990631 -3.484375q1.53125 -1.359375 2.71875 -2.453125q1.1875 -1.109375 2.0 -2.03125q0.8125 -0.921875 1.21875 -1.71875q0.421875 -0.796875 0.421875 -1.5625q0 -1.046875 -0.65625 -1.703125q-0.640625 -0.671875 -1.984375 -0.671875q-0.859375 0 -1.59375 0.4375q-0.71875 0.421875 -1.3125 1.03125l-0.890625 -0.890625q0.8125 -0.84375 1.75 -1.34375q0.953125 -0.5 2.234375 -0.5q0.921875 0 1.640625 0.25q0.734375 0.25 1.25 0.71875q0.515625 0.46875 0.78125 1.140625q0.28125 0.65625 0.28125 1.453125q0 0.859375 -0.40625 1.734375q-0.40625 0.859375 -1.15625 1.78125q-0.734375 0.921875 -1.765625 1.921875q-1.015625 0.984375 -2.25 2.109375q0.546875 -0.03125 1.125 -0.0625q0.578125 -0.046875 1.125 -0.046875l4.0 0l0 1.34375l-8.53125 0l0 -0.9375z" fill-rule="nonzero"></path><path fill="#000000" d="m443.795 325.71884q0.1875 0.0625 0.40625 0.09375q0.21875 0.03125 0.4375 0.03125q0.96875 0 1.5625 -0.5625q0.609375 -0.546875 0.953125 -1.40625l0.296875 -0.6875l-4.3125 -9.25l1.578125 0l2.25 5.109375q0.265625 0.609375 0.5625 1.3125q0.296875 0.703125 0.578125 1.375l0.078125 0q0.25 -0.671875 0.5 -1.359375q0.265625 -0.703125 0.484375 -1.328125l2.015625 -5.109375l1.484375 0l-4.0625 10.0q-0.265625 0.671875 -0.609375 1.265625q-0.34375 0.59375 -0.828125 1.015625q-0.46875 0.4375 -1.09375 0.671875q-0.609375 0.25 -1.390625 0.25q-0.671875 0 -1.21875 -0.1875l0.328125 -1.234375l0 0zm11.475006 -5.0625q0.609375 0.578125 1.453125 1.015625q0.859375 0.4375 2.03125 0.4375q0.625 0 1.15625 -0.15625q0.53125 -0.171875 0.921875 -0.453125q0.390625 -0.28125 0.609375 -0.6875q0.21875 -0.421875 0.21875 -0.921875q0 -0.53125 -0.234375 -0.984375q-0.234375 -0.453125 -0.78125 -0.765625q-0.53125 -0.328125 -1.375 -0.5q-0.828125 -0.171875 -2.015625 -0.171875l0 -1.1875q1.078125 0 1.828125 -0.171875q0.75 -0.171875 1.21875 -0.46875q0.484375 -0.3125 0.703125 -0.734375q0.21875 -0.421875 0.21875 -0.890625q0 -0.890625 -0.671875 -1.40625q-0.671875 -0.515625 -1.796875 -0.515625q-0.859375 0 -1.625 0.34375q-0.75 0.34375 -1.359375 0.890625l-0.84375 -0.984375q0.765625 -0.671875 1.734375 -1.09375q0.96875 -0.421875 2.15625 -0.421875q0.84375 0 1.578125 0.203125q0.734375 0.203125 1.265625 0.59375q0.546875 0.390625 0.84375 0.96875q0.3125 0.5625 0.3125 1.3125q0 1.09375 -0.71875 1.796875q-0.71875 0.703125 -1.859375 1.078125l0 0.078125q0.609375 0.140625 1.140625 0.40625q0.546875 0.25 0.953125 0.640625q0.421875 0.375 0.65625 0.890625q0.25 0.515625 0.25 1.140625q0 0.796875 -0.34375 1.453125q-0.34375 0.640625 -0.9375 1.09375q-0.59375 0.4375 -1.40625 0.6875q-0.796875 0.234375 -1.703125 0.234375q-1.578125 0 -2.640625 -0.515625q-1.0625 -0.53125 -1.734375 -1.203125l0.796875 -1.03125z" fill-rule="nonzero"></path><path shape-rendering="crispEdges" fill="#b7b7b7" d="m549.0315 89.91601l116.34906 0l0 50.674538l-116.34906 0l0 -50.674538z" fill-rule="nonzero"></path><path stroke="#000000" stroke-width="2.0" stroke-linecap="butt" d="m549.0315 88.91601l0 253.43045" fill-rule="nonzero"></path><path stroke="#000000" stroke-width="2.0" stroke-linecap="butt" d="m665.38055 88.91601l0 253.43045" fill-rule="nonzero"></path><path stroke="#000000" stroke-width="2.0" stroke-linecap="butt" d="m548.0315 89.91601l118.34906 0" fill-rule="nonzero"></path><path stroke="#000000" stroke-width="2.0" stroke-linecap="butt" d="m548.0315 140.59055l118.34906 0" fill-rule="nonzero"></path><path stroke="#000000" stroke-width="2.0" stroke-linecap="butt" d="m548.0315 190.77953l118.34906 0" fill-rule="nonzero"></path><path stroke="#000000" stroke-width="2.0" stroke-linecap="butt" d="m548.0315 240.9685l118.34906 0" fill-rule="nonzero"></path><path stroke="#000000" stroke-width="2.0" stroke-linecap="butt" d="m548.0315 291.15747l118.34906 0" fill-rule="nonzero"></path><path stroke="#000000" stroke-width="2.0" stroke-linecap="butt" d="m548.0315 341.34647l118.34906 0" fill-rule="nonzero"></path><path fill="#000000" d="m563.6654 109.78265l3.359375 0q1.359375 0 2.453125 0.359375q1.109375 0.359375 1.875 1.109375q0.78125 0.75 1.203125 1.921875q0.4375 1.15625 0.4375 2.75q0 1.59375 -0.4375 2.78125q-0.421875 1.171875 -1.1875 1.9375q-0.765625 0.765625 -1.828125 1.15625q-1.0625 0.375 -2.359375 0.375l-3.515625 0l0 -12.390625zm3.21875 10.125q0.71875 0 1.3125 -0.203125q0.59375 -0.203125 1.015625 -0.671875q0.4375 -0.46875 0.671875 -1.21875q0.234375 -0.765625 0.234375 -1.890625q0 -1.109375 -0.234375 -1.859375q-0.234375 -0.75 -0.671875 -1.1875q-0.421875 -0.453125 -1.015625 -0.640625q-0.59375 -0.1875 -1.3125 -0.1875l-0.40625 0l0 7.859375l0.40625 0zm7.8968506 -0.359375q0 -0.796875 0.34375 -1.390625q0.34375 -0.59375 1.09375 -1.015625q0.75 -0.421875 1.921875 -0.671875q1.1875 -0.265625 2.859375 -0.359375q-0.078125 -0.640625 -0.5625 -1.0q-0.484375 -0.359375 -1.453125 -0.359375q-0.6875 0 -1.390625 0.234375q-0.6875 0.234375 -1.484375 0.625l-0.984375 -1.8125q0.96875 -0.5625 2.078125 -0.921875q1.109375 -0.359375 2.328125 -0.359375q1.984375 0 3.125 1.046875q1.140625 1.046875 1.140625 3.21875l0 5.390625l-2.28125 0l-0.21875 -1.0625l-0.078125 0q-0.71875 0.546875 -1.578125 0.921875q-0.84375 0.375 -1.765625 0.375q-0.71875 0 -1.296875 -0.21875q-0.5625 -0.21875 -0.96875 -0.609375q-0.390625 -0.390625 -0.609375 -0.90625q-0.21875 -0.515625 -0.21875 -1.125zm2.6875 -0.203125q0 0.453125 0.34375 0.671875q0.359375 0.21875 0.96875 0.21875q0.625 0 1.171875 -0.25q0.546875 -0.265625 1.046875 -0.640625l0 -1.5625q-1.046875 0.0625 -1.734375 0.203125q-0.6875 0.125 -1.09375 0.328125q-0.390625 0.1875 -0.546875 0.453125q-0.15625 0.265625 -0.15625 0.578125zm10.662537 -4.40625l-2.375 0l0 -2.078125l2.5 -0.109375l0.359375 -2.515625l2.296875 0l0 2.515625l4.0 0l0 2.1875l-4.0 0l0 3.296875q0 1.09375 0.46875 1.546875q0.484375 0.4375 1.515625 0.4375q0.546875 0 1.0 -0.09375q0.453125 -0.09375 0.875 -0.25l0.5 2.015625q-0.625 0.1875 -1.40625 0.34375q-0.765625 0.171875 -1.671875 0.171875q-1.125 0 -1.90625 -0.296875q-0.78125 -0.3125 -1.265625 -0.859375q-0.484375 -0.546875 -0.6875 -1.296875q-0.203125 -0.765625 -0.203125 -1.6875l0 -3.328125zm9.037476 4.609375q0 -0.796875 0.34375 -1.390625q0.34375 -0.59375 1.09375 -1.015625q0.75 -0.421875 1.921875 -0.671875q1.1875 -0.265625 2.859375 -0.359375q-0.078125 -0.640625 -0.5625 -1.0q-0.484375 -0.359375 -1.453125 -0.359375q-0.6875 0 -1.390625 0.234375q-0.6875 0.234375 -1.484375 0.625l-0.984375 -1.8125q0.96875 -0.5625 2.078125 -0.921875q1.109375 -0.359375 2.328125 -0.359375q1.984375 0 3.125 1.046875q1.140625 1.046875 1.140625 3.21875l0 5.390625l-2.28125 0l-0.21875 -1.0625l-0.078125 0q-0.71875 0.546875 -1.578125 0.921875q-0.84375 0.375 -1.765625 0.375q-0.71875 0 -1.296875 -0.21875q-0.5625 -0.21875 -0.96875 -0.609375q-0.390625 -0.390625 -0.609375 -0.90625q-0.21875 -0.515625 -0.21875 -1.125zm2.6875 -0.203125q0 0.453125 0.34375 0.671875q0.359375 0.21875 0.96875 0.21875q0.625 0 1.171875 -0.25q0.546875 -0.265625 1.046875 -0.640625l0 -1.5625q-1.046875 0.0625 -1.734375 0.203125q-0.6875 0.125 -1.09375 0.328125q-0.390625 0.1875 -0.546875 0.453125q-0.15625 0.265625 -0.15625 0.578125zm23.090637 -8.9375q-1.015625 0.453125 -1.546875 1.109375q-0.515625 0.640625 -0.578125 1.5625q0.1875 -0.0625 0.390625 -0.0625q0.765625 0 1.25 0.46875q0.484375 0.453125 0.484375 1.265625q0 0.859375 -0.515625 1.390625q-0.515625 0.515625 -1.3125 0.515625q-1.0625 0 -1.640625 -0.796875q-0.578125 -0.796875 -0.578125 -2.234375q0 -1.5625 0.828125 -2.75q0.828125 -1.1875 2.5 -1.953125l0.71875 1.484375zm6.0 0q-1.015625 0.453125 -1.546875 1.109375q-0.515625 0.640625 -0.578125 1.5625q0.1875 -0.0625 0.390625 -0.0625q0.765625 0 1.25 0.46875q0.484375 0.453125 0.484375 1.265625q0 0.859375 -0.515625 1.390625q-0.515625 0.515625 -1.3125 0.515625q-1.0625 0 -1.640625 -0.796875q-0.578125 -0.796875 -0.578125 -2.234375q0 -1.5625 0.828125 -2.75q0.828125 -1.1875 2.5 -1.953125l0.71875 1.484375zm1.9750366 10.265625l4.9375 -5.734375l-4.328125 0l0 -2.1875l8.1875 0l0 1.484375l-4.9375 5.75l5.09375 0l0 2.1875l-8.953125 0l0 -1.5zm10.709351 -5.484375q1.984375 -0.90625 2.125 -2.65625q-0.21875 0.0625 -0.375 0.0625q-0.78125 0 -1.265625 -0.46875q-0.484375 -0.484375 -0.484375 -1.28125q0 -0.875 0.5 -1.390625q0.515625 -0.53125 1.3125 -0.53125q1.09375 0 1.65625 0.8125q0.578125 0.8125 0.578125 2.234375q0 1.5625 -0.828125 2.75q-0.8125 1.1875 -2.484375 1.9375l-0.734375 -1.46875zm6.0 0q1.984375 -0.90625 2.125 -2.65625q-0.21875 0.0625 -0.375 0.0625q-0.78125 0 -1.265625 -0.46875q-0.484375 -0.484375 -0.484375 -1.28125q0 -0.875 0.5 -1.390625q0.515625 -0.53125 1.3125 -0.53125q1.09375 0 1.65625 0.8125q0.578125 0.8125 0.578125 2.234375q0 1.5625 -0.828125 2.75q-0.8125 1.1875 -2.484375 1.9375l-0.734375 -1.46875z" fill-rule="nonzero"></path><path fill="#000000" d="m597.356 171.76129l6.328125 -7.125l-5.625 0l0 -1.265625l7.875 0l0 0.84375l-6.34375 7.125l6.53125 0l0 1.265625l-8.765625 0l0 -0.84375zm15.553162 1.078125q-2.03125 0 -3.203125 -1.640625q-1.15625 -1.65625 -1.15625 -4.6875q0 -3.0625 1.15625 -4.65625q1.171875 -1.59375 3.203125 -1.59375q2.03125 0 3.1875 1.59375q1.15625 1.59375 1.15625 4.65625q0 3.03125 -1.15625 4.6875q-1.15625 1.640625 -3.1875 1.640625zm0 -11.328125q-0.625 0 -1.15625 0.28125q-0.53125 0.28125 -0.921875 0.90625q-0.390625 0.609375 -0.609375 1.5625q-0.203125 0.9375 -0.203125 2.25q0 2.59375 0.796875 3.828125q0.8125 1.234375 2.09375 1.234375q1.265625 0 2.078125 -1.234375q0.8125 -1.234375 0.8125 -3.828125q0 -1.3125 -0.21875 -2.25q-0.203125 -0.953125 -0.59375 -1.5625q-0.390625 -0.625 -0.921875 -0.90625q-0.53125 -0.28125 -1.15625 -0.28125zm0 6.140625q-0.484375 0 -0.84375 -0.328125q-0.34375 -0.34375 -0.34375 -0.953125q0 -0.59375 0.34375 -0.921875q0.359375 -0.328125 0.84375 -0.328125q0.46875 0 0.8125 0.328125q0.359375 0.328125 0.359375 0.921875q0 0.609375 -0.359375 0.953125q-0.34375 0.328125 -0.8125 0.328125z" fill-rule="nonzero"></path><path fill="#000000" d="m597.356 221.95027l6.328125 -7.125l-5.625 0l0 -1.265625l7.875 0l0 0.84375l-6.34375 7.125l6.53125 0l0 1.265625l-8.765625 0l0 -0.84375zm19.881287 -0.453125l0 1.296875l-8.171875 0l0 -1.296875l3.4375 0l0 -8.921875l-2.578125 0l0 -1.015625q0.96875 -0.140625 1.6875 -0.359375q0.71875 -0.21875 1.296875 -0.53125l1.15625 0l0 10.828125l3.171875 0z" fill-rule="nonzero"></path><path fill="#000000" d="m597.356 272.13925l6.328125 -7.125l-5.625 0l0 -1.265625l7.875 0l0 0.84375l-6.34375 7.125l6.53125 0l0 1.265625l-8.765625 0l0 -0.84375zm11.240662 -0.09375q1.53125 -1.359375 2.71875 -2.453125q1.1875 -1.109375 2.0 -2.03125q0.8125 -0.921875 1.21875 -1.71875q0.421875 -0.796875 0.421875 -1.5625q0 -1.046875 -0.65625 -1.703125q-0.640625 -0.671875 -1.984375 -0.671875q-0.859375 0 -1.59375 0.4375q-0.71875 0.421875 -1.3125 1.03125l-0.890625 -0.890625q0.8125 -0.84375 1.75 -1.34375q0.953125 -0.5 2.234375 -0.5q0.921875 0 1.640625 0.25q0.734375 0.25 1.25 0.71875q0.515625 0.46875 0.78125 1.140625q0.28125 0.65625 0.28125 1.453125q0 0.859375 -0.40625 1.734375q-0.40625 0.859375 -1.15625 1.78125q-0.734375 0.921875 -1.765625 1.921875q-1.015625 0.984375 -2.25 2.109375q0.546875 -0.03125 1.125 -0.0625q0.578125 -0.046875 1.125 -0.046875l4.0 0l0 1.34375l-8.53125 0l0 -0.9375z" fill-rule="nonzero"></path><path fill="#000000" d="m597.356 322.32822l6.328125 -7.125l-5.625 0l0 -1.265625l7.875 0l0 0.84375l-6.34375 7.125l6.53125 0l0 1.265625l-8.765625 0l0 -0.84375zm11.725037 -1.671875q0.609375 0.578125 1.453125 1.015625q0.859375 0.4375 2.03125 0.4375q0.625 0 1.15625 -0.15625q0.53125 -0.171875 0.921875 -0.453125q0.390625 -0.28125 0.609375 -0.6875q0.21875 -0.421875 0.21875 -0.921875q0 -0.53125 -0.234375 -0.984375q-0.234375 -0.453125 -0.78125 -0.765625q-0.53125 -0.328125 -1.375 -0.5q-0.828125 -0.171875 -2.015625 -0.171875l0 -1.1875q1.078125 0 1.828125 -0.171875q0.75 -0.171875 1.21875 -0.46875q0.484375 -0.3125 0.703125 -0.734375q0.21875 -0.421875 0.21875 -0.890625q0 -0.890625 -0.671875 -1.40625q-0.671875 -0.515625 -1.796875 -0.515625q-0.859375 0 -1.625 0.34375q-0.75 0.34375 -1.359375 0.890625l-0.84375 -0.984375q0.765625 -0.671875 1.734375 -1.09375q0.96875 -0.421875 2.15625 -0.421875q0.84375 0 1.578125 0.203125q0.734375 0.203125 1.265625 0.59375q0.546875 0.390625 0.84375 0.96875q0.3125 0.5625 0.3125 1.3125q0 1.09375 -0.71875 1.796875q-0.71875 0.703125 -1.859375 1.078125l0 0.078125q0.609375 0.140625 1.140625 0.40625q0.546875 0.25 0.953125 0.640625q0.421875 0.375 0.65625 0.890625q0.25 0.515625 0.25 1.140625q0 0.796875 -0.34375 1.453125q-0.34375 0.640625 -0.9375 1.09375q-0.59375 0.4375 -1.40625 0.6875q-0.796875 0.234375 -1.703125 0.234375q-1.578125 0 -2.640625 -0.515625q-1.0625 -0.53125 -1.734375 -1.203125l0.796875 -1.03125z" fill-rule="nonzero"></path><path fill="#000000" d="m365.29474 213.74055l6.763397 0l0 -6.913849l1.4952698 0l0 6.913849l6.763397 0l0 1.4952545l-6.763397 0l0 6.913864l-1.4952698 0l0 -6.913864l-6.763397 0z" fill-rule="nonzero"></path><path stroke="#000000" stroke-width="1.0" stroke-linejoin="round" stroke-linecap="butt" d="m365.29474 213.74055l6.763397 0l0 -6.913849l1.4952698 0l0 6.913849l6.763397 0l0 1.4952545l-6.763397 0l0 6.913864l-1.4952698 0l0 -6.913864l-6.763397 0z" fill-rule="nonzero"></path><path fill="#000000" d="m522.7895 213.74055l6.7634277 0l0 -6.913849l1.4952393 0l0 6.913849l6.7633667 0l0 1.4952545l-6.7633667 0l0 6.913864l-1.4952393 0l0 -6.913864l-6.7634277 0z" fill-rule="nonzero"></path><path stroke="#000000" stroke-width="1.0" stroke-linejoin="round" stroke-linecap="butt" d="m522.7895 213.74055l6.7634277 0l0 -6.913849l1.4952393 0l0 6.913849l6.7633667 0l0 1.4952545l-6.7633667 0l0 6.913864l-1.4952393 0l0 -6.913864l-6.7634277 0z" fill-rule="nonzero"></path><path fill="#000000" fill-opacity="0.0" d="m218.12599 132.25197c0 -26.109589 10.405197 -47.27559 23.240677 -47.27559l184.5397 0c12.83548 0 23.240662 -21.166004 23.240662 -47.275593l0 0c0 26.109589 10.405212 47.275593 23.240692 47.275593l186.74954 0l0 0c12.835449 0 23.240662 21.166 23.240662 47.27559z" fill-rule="nonzero"></path><path fill="#000000" fill-opacity="0.0" d="m218.12599 132.25197c0 -26.109589 10.405197 -47.27559 23.240677 -47.27559l184.5397 0c12.83548 0 23.240662 -21.166004 23.240662 -47.275593l0 0c0 26.109589 10.405212 47.275593 23.240692 47.275593l186.74954 0l0 0c12.835449 0 23.240662 21.166 23.240662 47.27559" fill-rule="nonzero"></path><path stroke="#000000" stroke-width="2.0" stroke-linejoin="round" stroke-linecap="butt" d="m218.12599 132.25197c0 -26.109589 10.405197 -47.27559 23.240677 -47.27559l184.5397 0c12.83548 0 23.240662 -21.166004 23.240662 -47.275593l0 0c0 26.109589 10.405212 47.275593 23.240692 47.275593l186.74954 0l0 0c12.835449 0 23.240662 21.166 23.240662 47.27559" fill-rule="nonzero"></path><path fill="#000000" fill-opacity="0.0" d="m295.25986 384.7454l0 -32.06299" fill-rule="nonzero"></path><path stroke="#000000" stroke-width="2.0" stroke-linejoin="round" stroke-linecap="butt" d="m295.25986 384.7454l0 -20.062988" fill-rule="evenodd"></path><path fill="#000000" stroke="#000000" stroke-width="2.0" stroke-linecap="butt" d="m298.5633 364.6824l-3.3034363 -9.076172l-3.3034668 9.076172z" fill-rule="evenodd"></path><path fill="#000000" fill-opacity="0.0" d="m295.25986 372.72177l132.25195 0l0 32.06302l-132.25195 0z" fill-rule="nonzero"></path><path fill="#000000" d="m306.82236 396.1574q0.703125 0.578125 1.53125 0.9375q0.828125 0.359375 1.640625 0.359375q0.96875 0 1.40625 -0.3125q0.453125 -0.328125 0.453125 -0.875q0 -0.296875 -0.140625 -0.5q-0.125 -0.203125 -0.375 -0.359375q-0.234375 -0.171875 -0.59375 -0.3125q-0.34375 -0.140625 -0.796875 -0.3125l-1.609375 -0.6875q-0.5 -0.1875 -0.984375 -0.484375q-0.484375 -0.3125 -0.859375 -0.71875q-0.359375 -0.40625 -0.578125 -0.953125q-0.21875 -0.546875 -0.21875 -1.234375q0 -0.75 0.328125 -1.421875q0.34375 -0.671875 0.9375 -1.171875q0.609375 -0.515625 1.4375 -0.796875q0.84375 -0.28125 1.84375 -0.28125q1.140625 0 2.203125 0.421875q1.0625 0.40625 1.921875 1.203125l-1.421875 1.765625q-0.65625 -0.46875 -1.28125 -0.71875q-0.625 -0.265625 -1.421875 -0.265625q-0.8125 0 -1.265625 0.296875q-0.4375 0.296875 -0.4375 0.828125q0 0.5625 0.5625 0.859375q0.578125 0.28125 1.46875 0.59375l1.5 0.65625q1.234375 0.453125 1.9375 1.25q0.71875 0.796875 0.71875 2.109375q0 0.78125 -0.328125 1.484375q-0.3125 0.6875 -0.921875 1.203125q-0.609375 0.515625 -1.5 0.84375q-0.890625 0.3125 -2.0625 0.3125q-1.25 0 -2.484375 -0.453125q-1.21875 -0.453125 -2.21875 -1.34375l1.609375 -1.921875zm9.678131 -1.234375q0 -1.15625 0.40625 -2.0625q0.40625 -0.90625 1.09375 -1.546875q0.6875 -0.640625 1.5625 -0.984375q0.890625 -0.34375 1.84375 -0.34375q1.078125 0 1.90625 0.34375q0.84375 0.34375 1.390625 0.953125q0.546875 0.609375 0.828125 1.4375q0.296875 0.828125 0.296875 1.796875q0 0.375 -0.046875 0.71875q-0.03125 0.34375 -0.0625 0.515625l-6.359375 0q0.15625 1.0625 0.921875 1.53125q0.78125 0.453125 1.828125 0.453125q0.640625 0 1.21875 -0.15625q0.578125 -0.15625 1.203125 -0.484375l0.921875 1.671875q-0.796875 0.515625 -1.796875 0.8125q-0.984375 0.296875 -1.9375 0.296875q-1.09375 0 -2.046875 -0.328125q-0.953125 -0.34375 -1.65625 -0.96875q-0.703125 -0.640625 -1.109375 -1.546875q-0.40625 -0.921875 -0.40625 -2.109375zm6.796875 -1.015625q0 -0.796875 -0.4375 -1.296875q-0.4375 -0.5 -1.40625 -0.5q-0.75 0 -1.34375 0.4375q-0.59375 0.4375 -0.78125 1.359375l3.96875 0zm5.553131 -3.6875l2.28125 0l0.234375 2.046875l0.046875 0q0.703125 -1.15625 1.6875 -1.71875q1.0 -0.5625 2.140625 -0.5625q0.625 0 1.015625 0.09375q0.390625 0.09375 0.796875 0.296875l-0.5625 2.328125q-0.4375 -0.125 -0.796875 -0.1875q-0.34375 -0.078125 -0.875 -0.078125q-0.875 0 -1.71875 0.515625q-0.84375 0.515625 -1.453125 1.78125l0 4.90625l-2.796875 0l0 -9.421875zm10.490631 0l6.578125 0l0 9.421875l-2.796875 0l0 -7.234375l-3.78125 0l0 -2.1875zm5.0625 -1.390625q-0.828125 0 -1.359375 -0.453125q-0.515625 -0.453125 -0.515625 -1.234375q0 -0.78125 0.515625 -1.265625q0.53125 -0.484375 1.359375 -0.484375q0.8125 0 1.328125 0.484375q0.53125 0.484375 0.53125 1.265625q0 0.78125 -0.53125 1.234375q-0.515625 0.453125 -1.328125 0.453125zm5.678131 6.09375q0 -1.15625 0.40625 -2.0625q0.40625 -0.90625 1.09375 -1.546875q0.6875 -0.640625 1.5625 -0.984375q0.890625 -0.34375 1.84375 -0.34375q1.078125 0 1.90625 0.34375q0.84375 0.34375 1.390625 0.953125q0.546875 0.609375 0.828125 1.4375q0.296875 0.828125 0.296875 1.796875q0 0.375 -0.046875 0.71875q-0.03125 0.34375 -0.0625 0.515625l-6.359375 0q0.15625 1.0625 0.921875 1.53125q0.78125 0.453125 1.828125 0.453125q0.640625 0 1.21875 -0.15625q0.578125 -0.15625 1.203125 -0.484375l0.921875 1.671875q-0.796875 0.515625 -1.796875 0.8125q-0.984375 0.296875 -1.9375 0.296875q-1.09375 0 -2.046875 -0.328125q-0.953125 -0.34375 -1.65625 -0.96875q-0.703125 -0.640625 -1.109375 -1.546875q-0.40625 -0.921875 -0.40625 -2.109375zm6.796875 -1.015625q0 -0.796875 -0.4375 -1.296875q-0.4375 -0.5 -1.40625 -0.5q-0.75 0 -1.34375 0.4375q-0.59375 0.4375 -0.78125 1.359375l3.96875 0zm5.615631 2.765625q0.8125 0.515625 1.640625 0.828125q0.828125 0.296875 1.78125 0.296875q0.96875 0 1.375 -0.203125q0.421875 -0.21875 0.421875 -0.59375q0 -0.4375 -0.703125 -0.703125q-0.6875 -0.28125 -1.828125 -0.609375q-0.625 -0.171875 -1.21875 -0.40625q-0.59375 -0.234375 -1.078125 -0.5625q-0.46875 -0.34375 -0.765625 -0.78125q-0.296875 -0.4375 -0.296875 -1.0q0 -0.65625 0.296875 -1.203125q0.3125 -0.546875 0.875 -0.921875q0.5625 -0.390625 1.359375 -0.609375q0.8125 -0.21875 1.828125 -0.21875q1.25 0 2.28125 0.421875q1.03125 0.40625 1.78125 0.875l-1.25 1.671875q-0.65625 -0.375 -1.34375 -0.625q-0.671875 -0.265625 -1.421875 -0.265625q-0.890625 0 -1.265625 0.1875q-0.359375 0.1875 -0.359375 0.546875q0 0.21875 0.1875 0.390625q0.1875 0.171875 0.5 0.3125q0.328125 0.125 0.765625 0.25q0.453125 0.109375 0.953125 0.25q0.703125 0.1875 1.328125 0.421875q0.625 0.234375 1.09375 0.5625q0.484375 0.328125 0.765625 0.78125q0.296875 0.453125 0.296875 1.0625q0 0.640625 -0.3125 1.203125q-0.296875 0.546875 -0.875 0.953125q-0.578125 0.40625 -1.453125 0.65625q-0.859375 0.234375 -2.0 0.234375q-1.28125 0 -2.5 -0.421875q-1.203125 -0.421875 -2.125 -1.03125l1.265625 -1.75z" fill-rule="nonzero"></path><path fill="#000000" fill-opacity="0.0" d="m387.26904 0l132.25195 0l0 32.062992l-132.25195 0z" fill-rule="nonzero"></path><path fill="#000000" d="m397.15967 22.201248q0 -1.15625 0.34375 -2.0625q0.34375 -0.90625 0.90625 -1.546875q0.5625 -0.640625 1.28125 -0.984375q0.71875 -0.34375 1.5 -0.34375q0.8125 0 1.359375 0.28125q0.5625 0.28125 1.046875 0.734375l-0.09375 -1.46875l0 -3.203125l2.796875 0l0 13.3125l-2.28125 0l-0.203125 -0.96875l-0.0625 0q-0.53125 0.515625 -1.21875 0.859375q-0.671875 0.34375 -1.40625 0.34375q-0.890625 0 -1.625 -0.34375q-0.71875 -0.34375 -1.25 -0.984375q-0.515625 -0.640625 -0.8125 -1.546875q-0.28125 -0.90625 -0.28125 -2.078125zm2.875 -0.03125q0 1.40625 0.46875 2.0625q0.484375 0.640625 1.359375 0.640625q0.46875 0 0.859375 -0.203125q0.40625 -0.203125 0.78125 -0.671875l0 -3.828125q-0.375 -0.34375 -0.765625 -0.484375q-0.390625 -0.140625 -0.8125 -0.140625q-0.765625 0 -1.328125 0.65625q-0.5625 0.640625 -0.5625 1.96875zm18.006256 -6.234375q-0.921875 -0.359375 -1.96875 -0.359375q-0.921875 0 -1.34375 0.40625q-0.421875 0.390625 -0.421875 1.25l0 0.265625l3.25 0l0 2.1875l-3.25 0l0 7.234375l-2.796875 0l0 -7.234375l-2.484375 0l0 -2.078125l2.484375 -0.109375l0 -0.25q0 -0.8125 0.25 -1.515625q0.25 -0.703125 0.75 -1.21875q0.515625 -0.53125 1.3125 -0.828125q0.796875 -0.3125 1.90625 -0.3125q0.8125 0 1.515625 0.15625q0.71875 0.140625 1.328125 0.359375l-0.53125 2.046875zm4.115631 8.984375q0 -0.46875 0.15625 -0.875q0.15625 -0.40625 0.4375 -0.703125q0.296875 -0.3125 0.703125 -0.484375q0.40625 -0.171875 0.90625 -0.171875q0.484375 0 0.890625 0.171875q0.421875 0.171875 0.703125 0.484375q0.28125 0.296875 0.4375 0.703125q0.171875 0.40625 0.171875 0.875q0 0.953125 -0.609375 1.59375q-0.609375 0.640625 -1.59375 0.640625q-0.984375 0 -1.59375 -0.640625q-0.609375 -0.640625 -0.609375 -1.59375zm8.959381 -2.71875q0 -1.171875 0.453125 -2.09375q0.453125 -0.921875 1.203125 -1.546875q0.75 -0.625 1.734375 -0.953125q0.984375 -0.34375 2.0625 -0.34375q1.125 0 2.03125 0.359375q0.90625 0.359375 1.515625 0.921875l-1.296875 1.71875q-1.046875 -0.734375 -2.09375 -0.734375q-1.21875 0 -1.984375 0.71875q-0.75 0.71875 -0.75 1.953125q0 1.234375 0.734375 1.96875q0.734375 0.71875 1.90625 0.71875q0.75 0 1.375 -0.265625q0.625 -0.265625 1.109375 -0.625l1.140625 1.765625q-0.84375 0.71875 -1.890625 1.0625q-1.03125 0.328125 -2.0 0.328125q-1.125 0 -2.078125 -0.328125q-0.9375 -0.34375 -1.65625 -0.96875q-0.703125 -0.625 -1.109375 -1.546875q-0.40625 -0.921875 -0.40625 -2.109375zm10.818756 0q0 -1.171875 0.390625 -2.09375q0.40625 -0.921875 1.078125 -1.546875q0.6875 -0.625 1.546875 -0.953125q0.859375 -0.34375 1.796875 -0.34375q0.921875 0 1.78125 0.34375q0.875 0.328125 1.546875 0.953125q0.671875 0.625 1.0625 1.546875q0.40625 0.921875 0.40625 2.09375q0 1.1875 -0.40625 2.109375q-0.390625 0.921875 -1.0625 1.546875q-0.671875 0.625 -1.546875 0.96875q-0.859375 0.328125 -1.78125 0.328125q-0.9375 0 -1.796875 -0.328125q-0.859375 -0.34375 -1.546875 -0.96875q-0.671875 -0.625 -1.078125 -1.546875q-0.390625 -0.921875 -0.390625 -2.109375zm2.875 0q0 1.234375 0.484375 1.96875q0.484375 0.71875 1.453125 0.71875q0.96875 0 1.453125 -0.71875q0.484375 -0.734375 0.484375 -1.96875q0 -1.234375 -0.484375 -1.953125q-0.484375 -0.71875 -1.453125 -0.71875q-0.96875 0 -1.453125 0.71875q-0.484375 0.71875 -0.484375 1.953125zm8.600006 -8.59375l5.53125 0l0 9.734375q0 0.4375 0.125 0.734375q0.125 0.296875 0.34375 0.484375q0.21875 0.171875 0.484375 0.25q0.28125 0.078125 0.578125 0.078125q0.3125 0 0.671875 -0.0625q0.359375 -0.078125 0.796875 -0.25l0.640625 2.0625q-0.390625 0.109375 -0.71875 0.203125q-0.3125 0.09375 -0.640625 0.15625q-0.328125 0.078125 -0.6875 0.109375q-0.359375 0.046875 -0.796875 0.046875q-1.78125 0 -2.6875 -1.046875q-0.90625 -1.0625 -0.90625 -2.875l0 -7.421875l-2.734375 0l0 -2.203125zm19.990631 13.3125l-2.28125 0l-0.203125 -1.34375l-0.078125 0q-0.625 0.71875 -1.390625 1.15625q-0.75 0.421875 -1.78125 0.421875q-1.609375 0 -2.34375 -1.03125q-0.71875 -1.03125 -0.71875 -2.8125l0 -5.8125l2.796875 0l0 5.453125q0 0.953125 0.28125 1.390625q0.296875 0.4375 1.09375 0.4375q0.53125 0 0.9375 -0.234375q0.40625 -0.234375 0.90625 -0.859375l0 -6.1875l2.78125 0l0 9.421875zm1.9125061 -9.421875l2.09375 0l0.203125 1.171875l0.078125 0q0.265625 -0.578125 0.71875 -0.984375q0.46875 -0.421875 1.296875 -0.421875q0.625 0 1.046875 0.390625q0.4375 0.390625 0.59375 1.15625q0.265625 -0.65625 0.765625 -1.09375q0.515625 -0.453125 1.3125 -0.453125q0.984375 0 1.53125 0.8125q0.5625 0.8125 0.5625 2.234375l0 6.609375l-2.625 0l0 -6.40625q0 -0.875 -0.53125 -0.875q-0.515625 0 -0.875 0.921875l0 6.359375l-2.140625 0l0 -6.40625q0 -0.875 -0.5625 -0.875q-0.265625 0 -0.453125 0.234375q-0.1875 0.21875 -0.390625 0.6875l0 6.359375l-2.625 0l0 -9.421875zm11.881256 0l2.265625 0l0.21875 1.25l0.078125 0q0.609375 -0.609375 1.390625 -1.046875q0.796875 -0.4375 1.859375 -0.4375q1.59375 0 2.328125 1.03125q0.75 1.03125 0.75 2.8125l0 5.8125l-2.796875 0l0 -5.453125q0 -0.953125 -0.3125 -1.390625q-0.296875 -0.4375 -1.078125 -0.4375q-0.5625 0 -1.0 0.25q-0.421875 0.25 -0.921875 0.75l0 6.28125l-2.78125 0l0 -9.421875zm12.084381 6.453125q0.8125 0.515625 1.640625 0.828125q0.828125 0.296875 1.78125 0.296875q0.96875 0 1.375 -0.203125q0.421875 -0.21875 0.421875 -0.59375q0 -0.4375 -0.703125 -0.703125q-0.6875 -0.28125 -1.828125 -0.609375q-0.625 -0.171875 -1.21875 -0.40625q-0.59375 -0.234375 -1.078125 -0.5625q-0.46875 -0.34375 -0.765625 -0.78125q-0.296875 -0.4375 -0.296875 -1.0q0 -0.65625 0.296875 -1.203125q0.3125 -0.546875 0.875 -0.921875q0.5625 -0.390625 1.359375 -0.609375q0.8125 -0.21875 1.828125 -0.21875q1.25 0 2.28125 0.421875q1.03125 0.40625 1.78125 0.875l-1.25 1.671875q-0.65625 -0.375 -1.34375 -0.625q-0.671875 -0.265625 -1.421875 -0.265625q-0.890625 0 -1.265625 0.1875q-0.359375 0.1875 -0.359375 0.546875q0 0.21875 0.1875 0.390625q0.1875 0.171875 0.5 0.3125q0.328125 0.125 0.765625 0.25q0.453125 0.109375 0.953125 0.25q0.703125 0.1875 1.328125 0.421875q0.625 0.234375 1.09375 0.5625q0.484375 0.328125 0.765625 0.78125q0.296875 0.453125 0.296875 1.0625q0 0.640625 -0.3125 1.203125q-0.296875 0.546875 -0.875 0.953125q-0.578125 0.40625 -1.453125 0.65625q-0.859375 0.234375 -2.0 0.234375q-1.28125 0 -2.5 -0.421875q-1.203125 -0.421875 -2.125 -1.03125l1.265625 -1.75z" fill-rule="nonzero"></path><path fill="#000000" fill-opacity="0.0" d="m218.12599 132.25197l464.25195 0" fill-rule="nonzero"></path><path stroke="#000000" stroke-width="2.0" stroke-linejoin="round" stroke-linecap="butt" stroke-dasharray="2.0,6.0" d="m218.12599 132.25197l464.25195 0" fill-rule="nonzero"></path><path fill="#000000" fill-opacity="0.0" d="m79.543304 352.6614c-12.985214 0 -23.511806 -5.1748657 -23.511806 -11.558411l0 -86.563324c0 -6.3835297 -10.5266 -11.558411 -23.511814 -11.558411l0 0c12.985214 0 23.511814 -5.1748657 23.511814 -11.558395l0 -87.61249l0 0c0 -6.3835297 10.526592 -11.558411 23.511806 -11.558411z" fill-rule="nonzero"></path><path fill="#000000" fill-opacity="0.0" d="m79.543304 352.6614c-12.985214 0 -23.511806 -5.1748657 -23.511806 -11.558411l0 -86.563324c0 -6.3835297 -10.5266 -11.558411 -23.511814 -11.558411l0 0c12.985214 0 23.511814 -5.1748657 23.511814 -11.558395l0 -87.61249l0 0c0 -6.3835297 10.526592 -11.558411 23.511806 -11.558411" fill-rule="nonzero"></path><path stroke="#000000" stroke-width="2.0" stroke-linejoin="round" stroke-linecap="butt" d="m79.543304 352.6614c-12.985214 0 -23.511806 -5.1748657 -23.511806 -11.558411l0 -86.563324c0 -6.3835297 -10.5266 -11.558411 -23.511814 -11.558411l0 0c12.985214 0 23.511814 -5.1748657 23.511814 -11.558395l0 -87.61249l0 0c0 -6.3835297 10.526592 -11.558411 23.511806 -11.558411" fill-rule="nonzero"></path><path fill="#000000" fill-opacity="0.0" d="m-0.001312336 308.58267l0 -132.25197l32.062992 0l0 132.25197z" fill-rule="nonzero"></path><path fill="#000000" d="m22.199936 286.3411q-1.15625 0 -2.0625 -0.34375q-0.90625 -0.34375 -1.546875 -0.90625q-0.640625 -0.5625 -0.984375 -1.28125q-0.34375 -0.71875 -0.34375 -1.5q0 -0.8125 0.28125 -1.359375q0.28125 -0.5625 0.734375 -1.046875l-1.46875 0.09375l-3.203125 0l0 -2.796875l13.3125 0l0 2.28125l-0.96875 0.203125l0 0.0625q0.515625 0.53125 0.859375 1.21875q0.34375 0.671875 0.34375 1.40625q0 0.890625 -0.34375 1.625q-0.34375 0.71875 -0.984375 1.25q-0.640625 0.515625 -1.546875 0.8125q-0.90625 0.28125 -2.078125 0.28125zm-0.03125 -2.875q1.40625 0 2.0625 -0.46875q0.640625 -0.484375 0.640625 -1.359375q0 -0.46875 -0.203125 -0.859375q-0.203125 -0.40625 -0.671875 -0.78125l-3.828125 0q-0.34375 0.375 -0.484375 0.765625q-0.140625 0.390625 -0.140625 0.8125q0 0.765625 0.65625 1.328125q0.640625 0.5625 1.96875 0.5625zm-6.234375 -18.006256q-0.359375 0.921875 -0.359375 1.96875q0 0.921875 0.40625 1.34375q0.390625 0.421875 1.25 0.421875l0.265625 0l0 -3.25l2.1875 0l0 3.25l7.234375 0l0 2.796875l-7.234375 0l0 2.484375l-2.078125 0l-0.109375 -2.484375l-0.25 0q-0.8125 0 -1.515625 -0.25q-0.703125 -0.25 -1.21875 -0.75q-0.53125 -0.515625 -0.828125 -1.3125q-0.3125 -0.796875 -0.3125 -1.90625q0 -0.8125 0.15625 -1.515625q0.140625 -0.71875 0.359375 -1.328125l2.046875 0.53125zm8.984375 -4.115631q-0.46875 0 -0.875 -0.15625q-0.40625 -0.15625 -0.703125 -0.4375q-0.3125 -0.296875 -0.484375 -0.703125q-0.171875 -0.40625 -0.171875 -0.90625q0 -0.484375 0.171875 -0.890625q0.171875 -0.421875 0.484375 -0.703125q0.296875 -0.28125 0.703125 -0.4375q0.40625 -0.171875 0.875 -0.171875q0.953125 0 1.59375 0.609375q0.640625 0.609375 0.640625 1.59375q0 0.984375 -0.640625 1.59375q-0.640625 0.609375 -1.59375 0.609375zm-7.421875 -9.193756l0 -6.578125l9.421875 0l0 2.796875l-7.234375 0l0 3.78125l-2.1875 0zm-1.390625 -5.0625q0 0.828125 -0.453125 1.359375q-0.453125 0.515625 -1.234375 0.515625q-0.78125 0 -1.265625 -0.515625q-0.484375 -0.53125 -0.484375 -1.359375q0 -0.8125 0.484375 -1.328125q0.484375 -0.53125 1.265625 -0.53125q0.78125 0 1.234375 0.53125q0.453125 0.515625 0.453125 1.328125zm1.390625 -6.006256l0 -2.265625l1.25 -0.21875l0 -0.078125q-0.609375 -0.609375 -1.046875 -1.390625q-0.4375 -0.796875 -0.4375 -1.859375q0 -1.59375 1.03125 -2.328125q1.03125 -0.75 2.8125 -0.75l5.8125 0l0 2.796875l-5.453125 0q-0.953125 0 -1.390625 0.3125q-0.4375 0.296875 -0.4375 1.078125q0 0.5625 0.25 1.0q0.25 0.421875 0.75 0.921875l6.28125 0l0 2.78125l-9.421875 0zm4.703125 -10.709381q-1.15625 0 -2.0625 -0.34375q-0.90625 -0.34375 -1.546875 -0.90625q-0.640625 -0.5625 -0.984375 -1.28125q-0.34375 -0.71875 -0.34375 -1.5q0 -0.8125 0.28125 -1.359375q0.28125 -0.5625 0.734375 -1.046875l-1.46875 0.09375l-3.203125 0l0 -2.796875l13.3125 0l0 2.28125l-0.96875 0.203125l0 0.0625q0.515625 0.53125 0.859375 1.21875q0.34375 0.671875 0.34375 1.40625q0 0.890625 -0.34375 1.625q-0.34375 0.71875 -0.984375 1.25q-0.640625 0.515625 -1.546875 0.8125q-0.90625 0.28125 -2.078125 0.28125zm-0.03125 -2.875q1.40625 0 2.0625 -0.46875q0.640625 -0.484375 0.640625 -1.359375q0 -0.46875 -0.203125 -0.859375q-0.203125 -0.40625 -0.671875 -0.78125l-3.828125 0q-0.34375 0.375 -0.484375 0.765625q-0.140625 0.390625 -0.140625 0.8125q0 0.765625 0.65625 1.328125q0.640625 0.5625 1.96875 0.5625zm0.03125 -8.475006q-1.15625 0 -2.0625 -0.40625q-0.90625 -0.40625 -1.546875 -1.09375q-0.640625 -0.6875 -0.984375 -1.5625q-0.34375 -0.890625 -0.34375 -1.84375q0 -1.078125 0.34375 -1.90625q0.34375 -0.84375 0.953125 -1.390625q0.609375 -0.546875 1.4375 -0.828125q0.828125 -0.296875 1.796875 -0.296875q0.375 0 0.71875 0.046875q0.34375 0.03125 0.515625 0.0625l0 6.359375q1.0625 -0.15625 1.53125 -0.921875q0.453125 -0.78125 0.453125 -1.828125q0 -0.640625 -0.15625 -1.21875q-0.15625 -0.578125 -0.484375 -1.203125l1.671875 -0.921875q0.515625 0.796875 0.8125 1.796875q0.296875 0.984375 0.296875 1.9375q0 1.09375 -0.328125 2.046875q-0.34375 0.953125 -0.96875 1.65625q-0.640625 0.703125 -1.546875 1.109375q-0.921875 0.40625 -2.109375 0.40625zm-1.015625 -6.796875q-0.796875 0 -1.296875 0.4375q-0.5 0.4375 -0.5 1.40625q0 0.75 0.4375 1.34375q0.4375 0.59375 1.359375 0.78125l0 -3.96875zm0.828125 -7.318756l-4.515625 3.0625l0 -3.0l1.515625 -0.984375q0.40625 -0.203125 0.8125 -0.46875q0.40625 -0.265625 0.8125 -0.515625l0 -0.078125q-0.40625 -0.1875 -0.828125 -0.375q-0.421875 -0.203125 -0.796875 -0.390625l-1.515625 -0.84375l0 -2.921875l4.84375 3.078125l4.578125 -3.265625l0 3.0l-1.5625 1.078125q-0.390625 0.265625 -0.8125 0.546875q-0.421875 0.265625 -0.8125 0.53125l0 0.078125q0.390625 0.21875 0.8125 0.453125q0.40625 0.21875 0.8125 0.421875l1.5625 0.9375l0 2.921875l-4.90625 -3.265625z" fill-rule="nonzero"></path><path fill="#000000" fill-opacity="0.0" d="m229.22572 146.67192l445.63782 0l0 182.74016l-445.63782 0z" fill-rule="nonzero"></path><path stroke="#000000" stroke-width="2.0" stroke-linejoin="round" stroke-linecap="butt" stroke-dasharray="8.0,6.0" d="m229.22572 146.67192l445.63782 0l0 182.74016l-445.63782 0z" fill-rule="nonzero"></path><path fill="#000000" fill-opacity="0.0" d="m682.37665 144.26772l132.25195 0l0 32.06299l-132.25195 0z" fill-rule="nonzero"></path><path fill="#000000" d="m692.2673 166.46896q0 -1.15625 0.34375 -2.0625q0.34375 -0.90625 0.90625 -1.546875q0.5625 -0.640625 1.28125 -0.984375q0.71875 -0.34375 1.5 -0.34375q0.8125 0 1.359375 0.28125q0.5625 0.28125 1.046875 0.734375l-0.09375 -1.46875l0 -3.203125l2.796875 0l0 13.3125l-2.28125 0l-0.203125 -0.96875l-0.0625 0q-0.53125 0.515625 -1.21875 0.859375q-0.671875 0.34375 -1.40625 0.34375q-0.890625 0 -1.625 -0.34375q-0.71875 -0.34375 -1.25 -0.984375q-0.515625 -0.640625 -0.8125 -1.546875q-0.28125 -0.90625 -0.28125 -2.078125zm2.875 -0.03125q0 1.40625 0.46875 2.0625q0.484375 0.640625 1.359375 0.640625q0.46875 0 0.859375 -0.203125q0.40625 -0.203125 0.78125 -0.671875l0 -3.828125q-0.375 -0.34375 -0.765625 -0.484375q-0.390625 -0.140625 -0.8125 -0.140625q-0.765625 0 -1.328125 0.65625q-0.5625 0.640625 -0.5625 1.96875zm18.006226 -6.234375q-0.921875 -0.359375 -1.96875 -0.359375q-0.921875 0 -1.34375 0.40625q-0.421875 0.390625 -0.421875 1.25l0 0.265625l3.25 0l0 2.1875l-3.25 0l0 7.234375l-2.796875 0l0 -7.234375l-2.484375 0l0 -2.078125l2.484375 -0.109375l0 -0.25q0 -0.8125 0.25 -1.515625q0.25 -0.703125 0.75 -1.21875q0.515625 -0.53125 1.3125 -0.828125q0.796875 -0.3125 1.90625 -0.3125q0.8125 0 1.515625 0.15625q0.71875 0.140625 1.328125 0.359375l-0.53125 2.046875zm4.1156616 8.984375q0 -0.46875 0.15625 -0.875q0.15625 -0.40625 0.4375 -0.703125q0.296875 -0.3125 0.703125 -0.484375q0.40625 -0.171875 0.90625 -0.171875q0.484375 0 0.890625 0.171875q0.421875 0.171875 0.703125 0.484375q0.28125 0.296875 0.4375 0.703125q0.171875 0.40625 0.171875 0.875q0 0.953125 -0.609375 1.59375q-0.609375 0.640625 -1.59375 0.640625q-0.984375 0 -1.59375 -0.640625q-0.609375 -0.640625 -0.609375 -1.59375zm8.287476 -7.421875l2.8125 0l1.484375 4.4375q0.21875 0.734375 0.421875 1.453125q0.21875 0.71875 0.421875 1.453125l0.078125 0q0.203125 -0.734375 0.40625 -1.453125q0.203125 -0.71875 0.4375 -1.453125l1.46875 -4.4375l2.6875 0l-3.453125 9.421875l-3.21875 0l-3.546875 -9.421875zm11.756287 6.796875q0 -0.796875 0.34375 -1.390625q0.34375 -0.59375 1.09375 -1.015625q0.75 -0.421875 1.921875 -0.671875q1.1875 -0.265625 2.859375 -0.359375q-0.078125 -0.640625 -0.5625 -1.0q-0.484375 -0.359375 -1.453125 -0.359375q-0.6875 0 -1.390625 0.234375q-0.6875 0.234375 -1.484375 0.625l-0.984375 -1.8125q0.96875 -0.5625 2.078125 -0.921875q1.109375 -0.359375 2.328125 -0.359375q1.984375 0 3.125 1.046875q1.140625 1.046875 1.140625 3.21875l0 5.390625l-2.28125 0l-0.21875 -1.0625l-0.078125 0q-0.71875 0.546875 -1.578125 0.921875q-0.84375 0.375 -1.765625 0.375q-0.71875 0 -1.296875 -0.21875q-0.5625 -0.21875 -0.96875 -0.609375q-0.390625 -0.390625 -0.609375 -0.90625q-0.21875 -0.515625 -0.21875 -1.125zm2.6875 -0.203125q0 0.453125 0.34375 0.671875q0.359375 0.21875 0.96875 0.21875q0.625 0 1.171875 -0.25q0.546875 -0.265625 1.046875 -0.640625l0 -1.5625q-1.046875 0.0625 -1.734375 0.203125q-0.6875 0.125 -1.09375 0.328125q-0.390625 0.1875 -0.546875 0.453125q-0.15625 0.265625 -0.15625 0.578125zm8.521851 -10.484375l5.53125 0l0 9.734375q0 0.4375 0.125 0.734375q0.125 0.296875 0.34375 0.484375q0.21875 0.171875 0.484375 0.25q0.28125 0.078125 0.578125 0.078125q0.3125 0 0.671875 -0.0625q0.359375 -0.078125 0.796875 -0.25l0.640625 2.0625q-0.390625 0.109375 -0.71875 0.203125q-0.3125 0.09375 -0.640625 0.15625q-0.328125 0.078125 -0.6875 0.109375q-0.359375 0.046875 -0.796875 0.046875q-1.78125 0 -2.6875 -1.046875q-0.90625 -1.0625 -0.90625 -2.875l0 -7.421875l-2.734375 0l0 -2.203125zm19.990662 13.3125l-2.28125 0l-0.203125 -1.34375l-0.078125 0q-0.625 0.71875 -1.390625 1.15625q-0.75 0.421875 -1.78125 0.421875q-1.609375 0 -2.34375 -1.03125q-0.71875 -1.03125 -0.71875 -2.8125l0 -5.8125l2.796875 0l0 5.453125q0 0.953125 0.28125 1.390625q0.296875 0.4375 1.09375 0.4375q0.53125 0 0.9375 -0.234375q0.40625 -0.234375 0.90625 -0.859375l0 -6.1875l2.78125 0l0 9.421875zm2.2718506 -4.71875q0 -1.15625 0.40625 -2.0625q0.40625 -0.90625 1.09375 -1.546875q0.6875 -0.640625 1.5625 -0.984375q0.890625 -0.34375 1.84375 -0.34375q1.078125 0 1.90625 0.34375q0.84375 0.34375 1.390625 0.953125q0.546875 0.609375 0.828125 1.4375q0.296875 0.828125 0.296875 1.796875q0 0.375 -0.046875 0.71875q-0.03125 0.34375 -0.0625 0.515625l-6.359375 0q0.15625 1.0625 0.921875 1.53125q0.78125 0.453125 1.828125 0.453125q0.640625 0 1.21875 -0.15625q0.578125 -0.15625 1.203125 -0.484375l0.921875 1.671875q-0.796875 0.515625 -1.796875 0.8125q-0.984375 0.296875 -1.9375 0.296875q-1.09375 0 -2.046875 -0.328125q-0.953125 -0.34375 -1.65625 -0.96875q-0.703125 -0.640625 -1.109375 -1.546875q-0.40625 -0.921875 -0.40625 -2.109375zm6.796875 -1.015625q0 -0.796875 -0.4375 -1.296875q-0.4375 -0.5 -1.40625 -0.5q-0.75 0 -1.34375 0.4375q-0.59375 0.4375 -0.78125 1.359375l3.96875 0zm5.6156616 2.765625q0.8125 0.515625 1.640625 0.828125q0.828125 0.296875 1.78125 0.296875q0.96875 0 1.375 -0.203125q0.421875 -0.21875 0.421875 -0.59375q0 -0.4375 -0.703125 -0.703125q-0.6875 -0.28125 -1.828125 -0.609375q-0.625 -0.171875 -1.21875 -0.40625q-0.59375 -0.234375 -1.078125 -0.5625q-0.46875 -0.34375 -0.765625 -0.78125q-0.296875 -0.4375 -0.296875 -1.0q0 -0.65625 0.296875 -1.203125q0.3125 -0.546875 0.875 -0.921875q0.5625 -0.390625 1.359375 -0.609375q0.8125 -0.21875 1.828125 -0.21875q1.25 0 2.28125 0.421875q1.03125 0.40625 1.78125 0.875l-1.25 1.671875q-0.65625 -0.375 -1.34375 -0.625q-0.671875 -0.265625 -1.421875 -0.265625q-0.890625 0 -1.265625 0.1875q-0.359375 0.1875 -0.359375 0.546875q0 0.21875 0.1875 0.390625q0.1875 0.171875 0.5 0.3125q0.328125 0.125 0.765625 0.25q0.453125 0.109375 0.953125 0.25q0.703125 0.1875 1.328125 0.421875q0.625 0.234375 1.09375 0.5625q0.484375 0.328125 0.765625 0.78125q0.296875 0.453125 0.296875 1.0625q0 0.640625 -0.3125 1.203125q-0.296875 0.546875 -0.875 0.953125q-0.578125 0.40625 -1.453125 0.65625q-0.859375 0.234375 -2.0 0.234375q-1.28125 0 -2.5 -0.421875q-1.203125 -0.421875 -2.125 -1.03125l1.265625 -1.75z" fill-rule="nonzero"></path></g></svg>

