<?xml version="1.0" standalone="yes"?>

<svg version="1.1" viewBox="0.0 0.0 406.1076115485564 255.82939632545933" fill="none" stroke="none" stroke-linecap="square" stroke-miterlimit="10" xmlns="http://www.w3.org/2000/svg" xmlns:xlink="http://www.w3.org/1999/xlink"><clipPath id="p.0"><path d="m0 0l406.1076 0l0 255.82939l-406.1076 0l0 -255.82939z" clip-rule="nonzero"></path></clipPath><g clip-path="url(#p.0)"><path fill="#000000" fill-opacity="0.0" d="m0 0l406.1076 0l0 255.82939l-406.1076 0z" fill-rule="nonzero"></path><path shape-rendering="crispEdges" fill="#b7b7b7" d="m129.04199 0l129.04199 0l0 50.67454l-129.04199 0l0 -50.67454z" fill-rule="nonzero"></path><path stroke="#000000" stroke-width="2.0" stroke-linecap="butt" d="m129.04199 -1.0l0 253.43045" fill-rule="nonzero"></path><path stroke="#000000" stroke-width="2.0" stroke-linecap="butt" d="m258.08398 -1.0l0 253.43045" fill-rule="nonzero"></path><path stroke="#000000" stroke-width="2.0" stroke-linecap="butt" d="m128.04199 0l131.04199 0" fill-rule="nonzero"></path><path stroke="#000000" stroke-width="2.0" stroke-linecap="butt" d="m128.04199 50.67454l131.04199 0" fill-rule="nonzero"></path><path stroke="#000000" stroke-width="2.0" stroke-linecap="butt" d="m128.04199 100.86352l131.04199 0" fill-rule="nonzero"></path><path stroke="#000000" stroke-width="2.0" stroke-linecap="butt" d="m128.04199 151.05249l131.04199 0" fill-rule="nonzero"></path><path stroke="#000000" stroke-width="2.0" stroke-linecap="butt" d="m128.04199 201.24147l131.04199 0" fill-rule="nonzero"></path><path stroke="#000000" stroke-width="2.0" stroke-linecap="butt" d="m128.04199 251.43045l131.04199 0" fill-rule="nonzero"></path><path fill="#000000" d="m156.41609 19.866646l2.796875 0l0 10.03125l5.515625 0l0 2.359375l-8.3125 0l0 -12.390625zm10.209381 7.671875q0 -1.15625 0.40625 -2.0625q0.40625 -0.90625 1.09375 -1.546875q0.6875 -0.640625 1.5625 -0.984375q0.890625 -0.34375 1.84375 -0.34375q1.078125 0 1.90625 0.34375q0.84375 0.34375 1.390625 0.953125q0.546875 0.609375 0.828125 1.4375q0.296875 0.828125 0.296875 1.796875q0 0.375 -0.046875 0.71875q-0.03125 0.34375 -0.0625 0.515625l-6.359375 0q0.15625 1.0625 0.921875 1.53125q0.78125 0.453125 1.828125 0.453125q0.640625 0 1.21875 -0.15625q0.578125 -0.15625 1.203125 -0.484375l0.921875 1.671875q-0.796875 0.515625 -1.796875 0.8125q-0.984375 0.296875 -1.9375 0.296875q-1.09375 0 -2.046875 -0.328125q-0.953125 -0.34375 -1.65625 -0.96875q-0.703125 -0.640625 -1.109375 -1.546875q-0.40625 -0.921875 -0.40625 -2.109375zm6.796875 -1.015625q0 -0.796875 -0.4375 -1.296875q-0.4375 -0.5 -1.40625 -0.5q-0.75 0 -1.34375 0.4375q-0.59375 0.4375 -0.78125 1.359375l3.96875 0zm3.943756 -3.6875l2.8125 0l1.484375 4.4375q0.21875 0.734375 0.421875 1.453125q0.21875 0.71875 0.421875 1.453125l0.078125 0q0.203125 -0.734375 0.40625 -1.453125q0.203125 -0.71875 0.4375 -1.453125l1.46875 -4.4375l2.6875 0l-3.453125 9.421875l-3.21875 0l-3.546875 -9.421875zm11.646881 4.703125q0 -1.15625 0.40625 -2.0625q0.40625 -0.90625 1.09375 -1.546875q0.6875 -0.640625 1.5625 -0.984375q0.890625 -0.34375 1.84375 -0.34375q1.078125 0 1.90625 0.34375q0.84375 0.34375 1.390625 0.953125q0.546875 0.609375 0.828125 1.4375q0.296875 0.828125 0.296875 1.796875q0 0.375 -0.046875 0.71875q-0.03125 0.34375 -0.0625 0.515625l-6.359375 0q0.15625 1.0625 0.921875 1.53125q0.78125 0.453125 1.828125 0.453125q0.640625 0 1.21875 -0.15625q0.578125 -0.15625 1.203125 -0.484375l0.921875 1.671875q-0.796875 0.515625 -1.796875 0.8125q-0.984375 0.296875 -1.9375 0.296875q-1.09375 0 -2.046875 -0.328125q-0.953125 -0.34375 -1.65625 -0.96875q-0.703125 -0.640625 -1.109375 -1.546875q-0.40625 -0.921875 -0.40625 -2.109375zm6.796875 -1.015625q0 -0.796875 -0.4375 -1.296875q-0.4375 -0.5 -1.40625 -0.5q-0.75 0 -1.34375 0.4375q-0.59375 0.4375 -0.78125 1.359375l3.96875 0zm4.521881 -7.578125l5.53125 0l0 9.734375q0 0.4375 0.125 0.734375q0.125 0.296875 0.34375 0.484375q0.21875 0.171875 0.484375 0.25q0.28125 0.078125 0.578125 0.078125q0.3125 0 0.671875 -0.0625q0.359375 -0.078125 0.796875 -0.25l0.640625 2.0625q-0.390625 0.109375 -0.71875 0.203125q-0.3125 0.09375 -0.640625 0.15625q-0.328125 0.078125 -0.6875 0.109375q-0.359375 0.046875 -0.796875 0.046875q-1.78125 0 -2.6875 -1.046875q-0.90625 -1.0625 -0.90625 -2.875l0 -7.421875l-2.734375 0l0 -2.203125zm22.325012 11.71875q1.28125 -1.078125 2.34375 -2.015625q1.0625 -0.953125 1.828125 -1.765625q0.765625 -0.8125 1.171875 -1.53125q0.421875 -0.734375 0.421875 -1.375q0 -0.890625 -0.515625 -1.359375q-0.5 -0.46875 -1.453125 -0.46875q-0.71875 0 -1.328125 0.375q-0.59375 0.375 -1.109375 0.859375l-1.5 -1.5q0.46875 -0.46875 0.9375 -0.828125q0.46875 -0.375 0.984375 -0.609375q0.53125 -0.234375 1.109375 -0.359375q0.578125 -0.125 1.28125 -0.125q0.953125 0 1.734375 0.28125q0.78125 0.28125 1.328125 0.78125q0.5625 0.5 0.875 1.203125q0.3125 0.703125 0.3125 1.578125q0 0.765625 -0.359375 1.546875q-0.359375 0.78125 -0.984375 1.578125q-0.609375 0.78125 -1.40625 1.578125q-0.796875 0.78125 -1.671875 1.546875q0.515625 -0.0625 1.109375 -0.109375q0.609375 -0.046875 1.078125 -0.046875l2.875 0l0 2.359375l-9.0625 0l0 -1.59375z" fill-rule="nonzero"></path><path fill="#000000" d="m197.99736 81.39215l0 1.296875l-8.171875 0l0 -1.296875l3.4375 0l0 -8.921875l-2.578125 0l0 -1.015625q0.96875 -0.140625 1.6875 -0.359375q0.71875 -0.21875 1.296875 -0.53125l1.15625 0l0 10.828125l3.171875 0z" fill-rule="nonzero"></path><path fill="#000000" d="m189.35674 131.9405q1.53125 -1.359375 2.71875 -2.453125q1.1875 -1.109375 2.0 -2.03125q0.8125 -0.921875 1.21875 -1.71875q0.421875 -0.796875 0.421875 -1.5625q0 -1.046875 -0.65625 -1.703125q-0.640625 -0.671875 -1.984375 -0.671875q-0.859375 0 -1.59375 0.4375q-0.71875 0.421875 -1.3125 1.03125l-0.890625 -0.890625q0.8125 -0.84375 1.75 -1.34375q0.953125 -0.5 2.234375 -0.5q0.921875 0 1.640625 0.25q0.734375 0.25 1.25 0.71875q0.515625 0.46875 0.78125 1.140625q0.28125 0.65625 0.28125 1.453125q0 0.859375 -0.40625 1.734375q-0.40625 0.859375 -1.15625 1.78125q-0.734375 0.921875 -1.765625 1.921875q-1.015625 0.984375 -2.25 2.109375q0.546875 -0.03125 1.125 -0.0625q0.578125 -0.046875 1.125 -0.046875l4.0 0l0 1.34375l-8.53125 0l0 -0.9375z" fill-rule="nonzero"></path><path fill="#000000" d="m197.99736 181.77011l0 1.296875l-8.171875 0l0 -1.296875l3.4375 0l0 -8.921875l-2.578125 0l0 -1.015625q0.96875 -0.140625 1.6875 -0.359375q0.71875 -0.21875 1.296875 -0.53125l1.15625 0l0 10.828125l3.171875 0z" fill-rule="nonzero"></path><path fill="#000000" d="m189.35674 232.31845q1.53125 -1.359375 2.71875 -2.453125q1.1875 -1.109375 2.0 -2.03125q0.8125 -0.921875 1.21875 -1.71875q0.421875 -0.796875 0.421875 -1.5625q0 -1.046875 -0.65625 -1.703125q-0.640625 -0.671875 -1.984375 -0.671875q-0.859375 0 -1.59375 0.4375q-0.71875 0.421875 -1.3125 1.03125l-0.890625 -0.890625q0.8125 -0.84375 1.75 -1.34375q0.953125 -0.5 2.234375 -0.5q0.921875 0 1.640625 0.25q0.734375 0.25 1.25 0.71875q0.515625 0.46875 0.78125 1.140625q0.28125 0.65625 0.28125 1.453125q0 0.859375 -0.40625 1.734375q-0.40625 0.859375 -1.15625 1.78125q-0.734375 0.921875 -1.765625 1.921875q-1.015625 0.984375 -2.25 2.109375q0.546875 -0.03125 1.125 -0.0625q0.578125 -0.046875 1.125 -0.046875l4.0 0l0 1.34375l-8.53125 0l0 -0.9375z" fill-rule="nonzero"></path><path shape-rendering="crispEdges" fill="#b7b7b7" d="m0 0l129.04199 0l0 50.67454l-129.04199 0l0 -50.67454z" fill-rule="nonzero"></path><path stroke="#000000" stroke-width="2.0" stroke-linecap="butt" d="m0 -1.0l0 253.43045" fill-rule="nonzero"></path><path stroke="#000000" stroke-width="2.0" stroke-linecap="butt" d="m129.04199 -1.0l0 253.43045" fill-rule="nonzero"></path><path stroke="#000000" stroke-width="2.0" stroke-linecap="butt" d="m-1.0 0l131.04199 0" fill-rule="nonzero"></path><path stroke="#000000" stroke-width="2.0" stroke-linecap="butt" d="m-1.0 50.67454l131.04199 0" fill-rule="nonzero"></path><path stroke="#000000" stroke-width="2.0" stroke-linecap="butt" d="m-1.0 151.05249l131.04199 0" fill-rule="nonzero"></path><path stroke="#000000" stroke-width="2.0" stroke-linecap="butt" d="m-1.0 251.43045l131.04199 0" fill-rule="nonzero"></path><path fill="#000000" d="m27.3741 19.866646l2.796875 0l0 10.03125l5.515625 0l0 2.359375l-8.3125 0l0 -12.390625zm10.209381 7.671875q0 -1.15625 0.40625 -2.0625q0.40625 -0.90625 1.09375 -1.546875q0.6875 -0.640625 1.5625 -0.984375q0.890625 -0.34375 1.84375 -0.34375q1.078125 0 1.90625 0.34375q0.84375 0.34375 1.390625 0.953125q0.546875 0.609375 0.828125 1.4375q0.296875 0.828125 0.296875 1.796875q0 0.375 -0.046875 0.71875q-0.03125 0.34375 -0.0625 0.515625l-6.359375 0q0.15625 1.0625 0.921875 1.53125q0.78125 0.453125 1.828125 0.453125q0.640625 0 1.21875 -0.15625q0.578125 -0.15625 1.203125 -0.484375l0.921875 1.671875q-0.796875 0.515625 -1.796875 0.8125q-0.984375 0.296875 -1.9375 0.296875q-1.09375 0 -2.046875 -0.328125q-0.953125 -0.34375 -1.65625 -0.96875q-0.703125 -0.640625 -1.109375 -1.546875q-0.40625 -0.921875 -0.40625 -2.109375zm6.796875 -1.015625q0 -0.796875 -0.4375 -1.296875q-0.4375 -0.5 -1.40625 -0.5q-0.75 0 -1.34375 0.4375q-0.59375 0.4375 -0.78125 1.359375l3.96875 0zm3.943756 -3.6875l2.8125 0l1.484375 4.4375q0.21875 0.734375 0.421875 1.453125q0.21875 0.71875 0.421875 1.453125l0.078125 0q0.203125 -0.734375 0.40625 -1.453125q0.203125 -0.71875 0.4375 -1.453125l1.46875 -4.4375l2.6875 0l-3.453125 9.421875l-3.21875 0l-3.546875 -9.421875zm11.646881 4.703125q0 -1.15625 0.40625 -2.0625q0.40625 -0.90625 1.09375 -1.546875q0.6875 -0.640625 1.5625 -0.984375q0.890625 -0.34375 1.84375 -0.34375q1.078125 0 1.90625 0.34375q0.84375 0.34375 1.390625 0.953125q0.546875 0.609375 0.828125 1.4375q0.296875 0.828125 0.296875 1.796875q0 0.375 -0.046875 0.71875q-0.03125 0.34375 -0.0625 0.515625l-6.359375 0q0.15625 1.0625 0.921875 1.53125q0.78125 0.453125 1.828125 0.453125q0.640625 0 1.21875 -0.15625q0.578125 -0.15625 1.203125 -0.484375l0.921875 1.671875q-0.796875 0.515625 -1.796875 0.8125q-0.984375 0.296875 -1.9375 0.296875q-1.09375 0 -2.046875 -0.328125q-0.953125 -0.34375 -1.65625 -0.96875q-0.703125 -0.640625 -1.109375 -1.546875q-0.40625 -0.921875 -0.40625 -2.109375zm6.796875 -1.015625q0 -0.796875 -0.4375 -1.296875q-0.4375 -0.5 -1.40625 -0.5q-0.75 0 -1.34375 0.4375q-0.59375 0.4375 -0.78125 1.359375l3.96875 0zm4.521881 -7.578125l5.53125 0l0 9.734375q0 0.4375 0.125 0.734375q0.125 0.296875 0.34375 0.484375q0.21875 0.171875 0.484375 0.25q0.28125 0.078125 0.578125 0.078125q0.3125 0 0.671875 -0.0625q0.359375 -0.078125 0.796875 -0.25l0.640625 2.0625q-0.390625 0.109375 -0.71875 0.203125q-0.3125 0.09375 -0.640625 0.15625q-0.328125 0.078125 -0.6875 0.109375q-0.359375 0.046875 -0.796875 0.046875q-1.78125 0 -2.6875 -1.046875q-0.90625 -1.0625 -0.90625 -2.875l0 -7.421875l-2.734375 0l0 -2.203125zm31.418762 11.046875l0 2.265625l-8.640625 0l0 -2.265625l3.109375 0l0 -6.96875l-2.484375 0l0 -1.734375q1.0625 -0.1875 1.8125 -0.453125q0.75 -0.265625 1.421875 -0.640625l2.046875 0l0 9.796875l2.734375 0z" fill-rule="nonzero"></path><path fill="#000000" d="m54.949112 70.314026q-0.890625 0.515625 -1.40625 1.265625q-0.5 0.75 -0.546875 1.75q0.21875 -0.125 0.484375 -0.125q0.59375 0 0.96875 0.390625q0.375 0.375 0.375 0.984375q0 0.65625 -0.40625 1.0625q-0.40625 0.390625 -1.0 0.390625q-0.75 0 -1.234375 -0.59375q-0.484375 -0.59375 -0.484375 -1.6875q0 -1.421875 0.71875 -2.546875q0.734375 -1.125 2.015625 -1.796875l0.515625 0.90625zm5.506256 9.984375q0 -0.78125 0.375 -1.359375q0.375 -0.578125 1.171875 -1.0q0.8125 -0.421875 2.078125 -0.6875q1.28125 -0.265625 3.078125 -0.421875q-0.03125 -0.46875 -0.171875 -0.875q-0.125 -0.421875 -0.40625 -0.734375q-0.28125 -0.328125 -0.75 -0.515625q-0.46875 -0.1875 -1.125 -0.1875q-0.921875 0 -1.765625 0.359375q-0.828125 0.34375 -1.46875 0.75l-0.609375 -1.0625q0.34375 -0.234375 0.8125 -0.46875q0.46875 -0.234375 0.984375 -0.421875q0.515625 -0.203125 1.109375 -0.328125q0.59375 -0.125 1.203125 -0.125q1.890625 0 2.8125 1.046875q0.921875 1.03125 0.921875 2.765625l0 5.65625l-1.265625 0l-0.140625 -1.25l-0.046875 0q-0.78125 0.609375 -1.734375 1.046875q-0.9375 0.4375 -1.921875 0.4375q-0.640625 0 -1.21875 -0.1875q-0.5625 -0.1875 -1.0 -0.515625q-0.421875 -0.328125 -0.671875 -0.8125q-0.25 -0.484375 -0.25 -1.109375zm1.53125 -0.125q0 0.40625 0.171875 0.6875q0.171875 0.265625 0.4375 0.453125q0.28125 0.171875 0.640625 0.265625q0.375 0.078125 0.78125 0.078125q0.796875 0 1.5625 -0.34375q0.765625 -0.359375 1.578125 -1.015625l0 -2.4375q-1.484375 0.109375 -2.484375 0.328125q-1.0 0.203125 -1.609375 0.5q-0.59375 0.296875 -0.84375 0.671875q-0.234375 0.359375 -0.234375 0.8125zm12.256256 -5.046875q0.90625 -0.5 1.40625 -1.25q0.515625 -0.75 0.5625 -1.75q-0.21875 0.109375 -0.484375 0.109375q-0.609375 0 -0.984375 -0.359375q-0.375 -0.375 -0.375 -0.984375q0 -0.671875 0.390625 -1.078125q0.40625 -0.40625 1.015625 -0.40625q0.765625 0 1.234375 0.609375q0.484375 0.609375 0.484375 1.6875q0 1.421875 -0.734375 2.546875q-0.71875 1.125 -1.984375 1.78125l-0.53125 -0.90625z" fill-rule="nonzero"></path><path fill="#000000" d="m54.949112 170.69199q-0.890625 0.515625 -1.40625 1.265625q-0.5 0.75 -0.546875 1.75q0.21875 -0.125 0.484375 -0.125q0.59375 0 0.96875 0.390625q0.375 0.375 0.375 0.984375q0 0.65625 -0.40625 1.0625q-0.40625 0.390625 -1.0 0.390625q-0.75 0 -1.234375 -0.59375q-0.484375 -0.59375 -0.484375 -1.6875q0 -1.421875 0.71875 -2.546875q0.734375 -1.125 2.015625 -1.796875l0.515625 0.90625zm5.740631 -1.15625l1.5625 0l0 3.6875l-0.046875 1.78125q0.671875 -0.640625 1.5 -1.015625q0.828125 -0.390625 1.640625 -0.390625q0.9375 0 1.65625 0.34375q0.71875 0.328125 1.203125 0.953125q0.484375 0.609375 0.734375 1.484375q0.25 0.859375 0.25 1.921875q0 1.171875 -0.34375 2.109375q-0.34375 0.921875 -0.921875 1.578125q-0.578125 0.640625 -1.34375 0.984375q-0.765625 0.328125 -1.578125 0.328125q-0.65625 0 -1.4375 -0.328125q-0.765625 -0.34375 -1.421875 -0.9375l-0.0625 0l-0.140625 1.03125l-1.25 0l0 -13.53125zm1.5625 11.359375q0.65625 0.59375 1.328125 0.84375q0.6875 0.25 1.171875 0.25q0.609375 0 1.125 -0.25q0.515625 -0.265625 0.890625 -0.734375q0.390625 -0.46875 0.59375 -1.140625q0.203125 -0.6875 0.203125 -1.546875q0 -0.765625 -0.15625 -1.390625q-0.140625 -0.625 -0.453125 -1.0625q-0.3125 -0.453125 -0.8125 -0.703125q-0.5 -0.25 -1.171875 -0.25q-0.609375 0 -1.3125 0.34375q-0.6875 0.328125 -1.40625 1.046875l0 4.59375zm11.990631 -5.390625q0.90625 -0.5 1.40625 -1.25q0.515625 -0.75 0.5625 -1.75q-0.21875 0.109375 -0.484375 0.109375q-0.609375 0 -0.984375 -0.359375q-0.375 -0.375 -0.375 -0.984375q0 -0.671875 0.390625 -1.078125q0.40625 -0.40625 1.015625 -0.40625q0.765625 0 1.234375 0.609375q0.484375 0.609375 0.484375 1.6875q0 1.421875 -0.734375 2.546875q-0.71875 1.125 -1.984375 1.78125l-0.53125 -0.90625z" fill-rule="nonzero"></path><path fill="#000000" fill-opacity="0.0" d="m307.25723 125.490814l-33.102386 -0.6614151" fill-rule="nonzero"></path><path stroke="#000000" stroke-width="3.0" stroke-linejoin="round" stroke-linecap="butt" d="m307.25723 125.490814l-15.105957 -0.30182648" fill-rule="evenodd"></path><path fill="#000000" stroke="#000000" stroke-width="3.0" stroke-linecap="butt" d="m292.25024 120.23477l-13.710571 4.6822357l13.512604 5.226181z" fill-rule="evenodd"></path><path fill="#000000" fill-opacity="0.0" d="m307.25723 103.56956l110.92911 0l0 43.84252l-110.92911 0z" fill-rule="nonzero"></path><path fill="#000000" d="m324.4916 133.8333q-1.984375 -1.53125 -3.140625 -3.703125q-1.140625 -2.1718674 -1.140625 -4.9218674q0 -2.75 1.140625 -4.921875q1.15625 -2.171875 3.140625 -3.703125l0.84375 0.796875q-1.921875 1.609375 -2.828125 3.515625q-0.890625 1.90625 -0.890625 4.3125q0 2.40625 0.890625 4.3124924q0.90625 1.90625 2.828125 3.515625l-0.84375 0.796875l0 0zm4.490631 -5.734375q0 -0.7812424 0.375 -1.3593674q0.375 -0.578125 1.171875 -1.0q0.8125 -0.421875 2.078125 -0.6875q1.28125 -0.265625 3.078125 -0.421875q-0.03125 -0.46875 -0.171875 -0.875q-0.125 -0.421875 -0.40625 -0.734375q-0.28125 -0.328125 -0.75 -0.515625q-0.46875 -0.1875 -1.125 -0.1875q-0.921875 0 -1.765625 0.359375q-0.828125 0.34375 -1.46875 0.75l-0.609375 -1.0625q0.34375 -0.234375 0.8125 -0.46875q0.46875 -0.234375 0.984375 -0.421875q0.515625 -0.203125 1.109375 -0.328125q0.59375 -0.125 1.203125 -0.125q1.890625 0 2.8125 1.046875q0.921875 1.03125 0.921875 2.765625l0 5.6562424l-1.265625 0l-0.140625 -1.25l-0.046875 0q-0.78125 0.609375 -1.734375 1.046875q-0.9375 0.4375 -1.921875 0.4375q-0.640625 0 -1.21875 -0.1875q-0.5625 -0.1875 -1.0 -0.515625q-0.421875 -0.328125 -0.671875 -0.8125q-0.25 -0.484375 -0.25 -1.109375zm1.53125 -0.12499237q0 0.40624237 0.171875 0.6874924q0.171875 0.265625 0.4375 0.453125q0.28125 0.171875 0.640625 0.265625q0.375 0.078125 0.78125 0.078125q0.796875 0 1.5625 -0.34375q0.765625 -0.359375 1.578125 -1.015625l0 -2.4374924q-1.484375 0.109375 -2.484375 0.328125q-1.0 0.203125 -1.609375 0.5q-0.59375 0.296875 -0.84375 0.671875q-0.234375 0.359375 -0.234375 0.8125zm11.881256 5.5781174q1.171875 -0.53125 1.75 -1.28125q0.59375 -0.75 0.640625 -1.890625q-0.09375 0.015625 -0.1875 0.03125q-0.078125 0 -0.171875 0q-0.609375 0 -1.046875 -0.34375q-0.4375 -0.359375 -0.4375 -1.078125q0 -0.703125 0.453125 -1.0624924q0.453125 -0.375 1.0625 -0.375q0.859375 0 1.28125 0.6562424q0.4375 0.640625 0.4375 1.765625q0 1.671875 -0.890625 2.8125q-0.890625 1.15625 -2.453125 1.75l-0.4375 -0.984375zm25.856262 -15.437492q-0.890625 0.515625 -1.40625 1.265625q-0.5 0.75 -0.546875 1.75q0.21875 -0.125 0.484375 -0.125q0.59375 0 0.96875 0.390625q0.375 0.375 0.375 0.984375q0 0.65625 -0.40625 1.0625q-0.40625 0.390625 -1.0 0.390625q-0.75 0 -1.234375 -0.59375q-0.484375 -0.59375 -0.484375 -1.6875q0 -1.421875 0.71875 -2.546875q0.734375 -1.125 2.015625 -1.796875l0.515625 0.90625zm5.365631 11.437492q1.53125 -1.359375 2.71875 -2.4531174q1.1875 -1.109375 2.0 -2.03125q0.8125 -0.921875 1.21875 -1.71875q0.421875 -0.796875 0.421875 -1.5625q0 -1.046875 -0.65625 -1.703125q-0.640625 -0.671875 -1.984375 -0.671875q-0.859375 0 -1.59375 0.4375q-0.71875 0.421875 -1.3125 1.03125l-0.890625 -0.890625q0.8125 -0.84375 1.75 -1.34375q0.953125 -0.5 2.234375 -0.5q0.921875 0 1.640625 0.25q0.734375 0.25 1.25 0.71875q0.515625 0.46875 0.78125 1.140625q0.28125 0.65625 0.28125 1.453125q0 0.859375 -0.40625 1.734375q-0.40625 0.859375 -1.15625 1.78125q-0.734375 0.921875 -1.765625 1.921875q-1.015625 0.9843674 -2.25 2.1093674q0.546875 -0.03125 1.125 -0.0625q0.578125 -0.046875 1.125 -0.046875l4.0 0l0 1.34375l-8.53125 0l0 -0.9375zm13.928131 -6.6249924q0.90625 -0.5 1.40625 -1.25q0.515625 -0.75 0.5625 -1.75q-0.21875 0.109375 -0.484375 0.109375q-0.609375 0 -0.984375 -0.359375q-0.375 -0.375 -0.375 -0.984375q0 -0.671875 0.390625 -1.078125q0.40625 -0.40625 1.015625 -0.40625q0.765625 0 1.234375 0.609375q0.484375 0.609375 0.484375 1.6875q0 1.421875 -0.734375 2.546875q-0.71875 1.125 -1.984375 1.78125l-0.53125 -0.90625zm9.381256 10.109367q1.921875 -1.609375 2.828125 -3.515625q0.90625 -1.9062424 0.90625 -4.3124924q0 -2.40625 -0.90625 -4.3125q-0.90625 -1.90625 -2.828125 -3.515625l0.859375 -0.796875q1.984375 1.53125 3.125 3.703125q1.15625 2.171875 1.15625 4.921875q0 2.75 -1.15625 4.9218674q-1.140625 2.171875 -3.125 3.703125l-0.859375 -0.796875z" fill-rule="nonzero"></path></g></svg>

