<?xml version="1.0" standalone="yes"?>

<svg version="1.1" viewBox="0.0 0.0 265.3543307086614 262.0866141732283" fill="none" stroke="none" stroke-linecap="square" stroke-miterlimit="10" xmlns="http://www.w3.org/2000/svg" xmlns:xlink="http://www.w3.org/1999/xlink"><clipPath id="p.0"><path d="m0 0l265.35434 0l0 262.0866l-265.35434 0l0 -262.0866z" clip-rule="nonzero"></path></clipPath><g clip-path="url(#p.0)"><path fill="#000000" fill-opacity="0.0" d="m0 0l265.35434 0l0 262.0866l-265.35434 0z" fill-rule="nonzero"></path><path shape-rendering="crispEdges" fill="#b7b7b7" d="m6.0524936 4.8372703l87.89502 0l0 50.67454l-87.89502 0l0 -50.67454z" fill-rule="nonzero"></path><path stroke="#000000" stroke-width="2.0" stroke-linecap="butt" d="m6.0524936 3.8372703l0 253.43047" fill-rule="nonzero"></path><path stroke="#000000" stroke-width="2.0" stroke-linecap="butt" d="m93.94751 3.8372703l0 253.43047" fill-rule="nonzero"></path><path stroke="#000000" stroke-width="2.0" stroke-linecap="butt" d="m5.0524936 4.8372703l89.89502 0" fill-rule="nonzero"></path><path stroke="#000000" stroke-width="2.0" stroke-linecap="butt" d="m5.0524936 55.51181l89.89502 0" fill-rule="nonzero"></path><path stroke="#000000" stroke-width="2.0" stroke-linecap="butt" d="m5.0524936 105.70079l89.89502 0" fill-rule="nonzero"></path><path stroke="#000000" stroke-width="2.0" stroke-linecap="butt" d="m5.0524936 155.88977l89.89502 0" fill-rule="nonzero"></path><path stroke="#000000" stroke-width="2.0" stroke-linecap="butt" d="m5.0524936 206.07874l89.89502 0" fill-rule="nonzero"></path><path stroke="#000000" stroke-width="2.0" stroke-linecap="butt" d="m5.0524936 256.26773l89.89502 0" fill-rule="nonzero"></path><path fill="#000000" d="m23.42186 34.735165l2.890625 0l0 -7.671873l-2.890625 0l0 -2.359375l8.59375 0l0 2.359375l-2.890625 0l0 7.671873l2.890625 0l0 2.359375l-8.59375 0l0 -2.359375zm11.162506 -7.062498l2.265625 0l0.21875 1.25l0.078125 0q0.609375 -0.609375 1.390625 -1.046875q0.796875 -0.4375 1.859375 -0.4375q1.59375 0 2.328125 1.03125q0.75 1.03125 0.75 2.8125l0 5.812498l-2.796875 0l0 -5.453123q0 -0.953125 -0.3125 -1.390625q-0.296875 -0.4375 -1.078125 -0.4375q-0.5625 0 -1.0 0.25q-0.421875 0.25 -0.921875 0.75l0 6.281248l-2.78125 0l0 -9.421873zm10.709381 4.703123q0 -1.1562481 0.34375 -2.062498q0.34375 -0.90625 0.90625 -1.546875q0.5625 -0.640625 1.28125 -0.984375q0.71875 -0.34375 1.5 -0.34375q0.8125 0 1.359375 0.28125q0.5625 0.28125 1.046875 0.734375l-0.09375 -1.46875l0 -3.203125l2.796875 0l0 13.312498l-2.28125 0l-0.203125 -0.96875l-0.0625 0q-0.53125 0.515625 -1.21875 0.859375q-0.671875 0.34375 -1.40625 0.34375q-0.890625 0 -1.625 -0.34375q-0.71875 -0.34375 -1.25 -0.984375q-0.515625 -0.640625 -0.8125 -1.546875q-0.28125 -0.90625 -0.28125 -2.078125zm2.875 -0.03125q0 1.40625 0.46875 2.0625q0.484375 0.640625 1.359375 0.640625q0.46875 0 0.859375 -0.203125q0.40625 -0.203125 0.78125 -0.671875l0 -3.828123q-0.375 -0.34375 -0.765625 -0.484375q-0.390625 -0.140625 -0.8125 -0.140625q-0.765625 0 -1.328125 0.65625q-0.5625 0.640625 -0.5625 1.9687481zm8.475006 0.03125q0 -1.1562481 0.40625 -2.062498q0.40625 -0.90625 1.09375 -1.546875q0.6875 -0.640625 1.5625 -0.984375q0.890625 -0.34375 1.84375 -0.34375q1.078125 0 1.90625 0.34375q0.84375 0.34375 1.390625 0.953125q0.546875 0.609375 0.828125 1.4375q0.296875 0.828125 0.296875 1.796875q0 0.3749981 -0.046875 0.7187481q-0.03125 0.34375 -0.0625 0.515625l-6.359375 0q0.15625 1.0625 0.921875 1.53125q0.78125 0.453125 1.828125 0.453125q0.640625 0 1.21875 -0.15625q0.578125 -0.15625 1.203125 -0.484375l0.921875 1.671875q-0.796875 0.515625 -1.796875 0.8125q-0.984375 0.296875 -1.9375 0.296875q-1.09375 0 -2.046875 -0.328125q-0.953125 -0.34375 -1.65625 -0.96875q-0.703125 -0.640625 -1.109375 -1.546875q-0.40625 -0.921875 -0.40625 -2.109375zm6.796875 -1.0156231q0 -0.796875 -0.4375 -1.296875q-0.4375 -0.5 -1.40625 -0.5q-0.75 0 -1.34375 0.4375q-0.59375 0.4375 -0.78125 1.359375l3.96875 0zm7.318756 0.8281231l-3.0625 -4.515623l3.0 0l0.984375 1.515625q0.203125 0.40625 0.46875 0.8125q0.265625 0.40625 0.515625 0.8125l0.078125 0q0.1875 -0.40625 0.375 -0.828125q0.203125 -0.421875 0.390625 -0.796875l0.84375 -1.515625l2.921875 0l-3.078125 4.843748l3.265625 4.578125l-3.0 0l-1.078125 -1.5625q-0.265625 -0.390625 -0.546875 -0.8125q-0.265625 -0.421875 -0.53125 -0.8125l-0.078125 0q-0.21875 0.390625 -0.453125 0.8125q-0.21875 0.40625 -0.421875 0.8125l-0.9375 1.5625l-2.921875 0l3.265625 -4.90625z" fill-rule="nonzero"></path><path fill="#000000" d="m50.106247 87.76067q-2.03125 0 -3.203125 -1.640625q-1.15625 -1.65625 -1.15625 -4.6875q0 -3.0625 1.15625 -4.65625q1.171875 -1.59375 3.203125 -1.59375q2.03125 0 3.1875 1.59375q1.15625 1.59375 1.15625 4.65625q0 3.03125 -1.15625 4.6875q-1.15625 1.640625 -3.1875 1.640625zm0 -11.328125q-0.625 0 -1.15625 0.28125q-0.53125 0.28125 -0.921875 0.90625q-0.390625 0.609375 -0.609375 1.5625q-0.203125 0.9375 -0.203125 2.25q0 2.59375 0.796875 3.828125q0.8125 1.234375 2.09375 1.234375q1.265625 0 2.078125 -1.234375q0.8125 -1.234375 0.8125 -3.828125q0 -1.3125 -0.21875 -2.25q-0.203125 -0.953125 -0.59375 -1.5625q-0.390625 -0.625 -0.921875 -0.90625q-0.53125 -0.28125 -1.15625 -0.28125zm0 6.140625q-0.484375 0 -0.84375 -0.328125q-0.34375 -0.34375 -0.34375 -0.953125q0 -0.59375 0.34375 -0.921875q0.359375 -0.328125 0.84375 -0.328125q0.46875 0 0.8125 0.328125q0.359375 0.328125 0.359375 0.921875q0 0.609375 -0.359375 0.953125q-0.34375 0.328125 -0.8125 0.328125z" fill-rule="nonzero"></path><path fill="#000000" d="m54.434372 136.4184l0 1.296875l-8.171875 0l0 -1.296875l3.4375 0l0 -8.921867l-2.578125 0l0 -1.015625q0.96875 -0.140625 1.6875 -0.359375q0.71875 -0.21875 1.296875 -0.53125l1.15625 0l0 10.828117l3.171875 0z" fill-rule="nonzero"></path><path fill="#000000" d="m45.793747 186.96675q1.53125 -1.359375 2.71875 -2.453125q1.1875 -1.109375 2.0 -2.03125q0.8125 -0.921875 1.21875 -1.71875q0.421875 -0.796875 0.421875 -1.5625q0 -1.046875 -0.65625 -1.703125q-0.640625 -0.671875 -1.984375 -0.671875q-0.859375 0 -1.59375 0.4375q-0.71875 0.421875 -1.3125 1.03125l-0.890625 -0.890625q0.8125 -0.84375 1.75 -1.34375q0.953125 -0.5 2.234375 -0.5q0.921875 0 1.640625 0.25q0.734375 0.25 1.25 0.71875q0.515625 0.46875 0.78125 1.140625q0.28125 0.65625 0.28125 1.453125q0 0.859375 -0.40625 1.734375q-0.40625 0.859375 -1.15625 1.78125q-0.734375 0.921875 -1.765625 1.921875q-1.015625 0.984375 -2.25 2.109375q0.546875 -0.03125 1.125 -0.0625q0.578125 -0.046875 1.125 -0.046875l4.0 0l0 1.34375l-8.53125 0l0 -0.9375z" fill-rule="nonzero"></path><path fill="#000000" d="m46.278122 235.5776q0.609375 0.578125 1.453125 1.015625q0.859375 0.4375 2.03125 0.4375q0.625 0 1.15625 -0.15625q0.53125 -0.171875 0.921875 -0.453125q0.390625 -0.28125 0.609375 -0.6875q0.21875 -0.421875 0.21875 -0.921875q0 -0.53125 -0.234375 -0.984375q-0.234375 -0.453125 -0.78125 -0.765625q-0.53125 -0.328125 -1.375 -0.5q-0.828125 -0.171875 -2.015625 -0.171875l0 -1.1875q1.078125 0 1.828125 -0.171875q0.75 -0.171875 1.21875 -0.46875q0.484375 -0.3125 0.703125 -0.734375q0.21875 -0.421875 0.21875 -0.890625q0 -0.890625 -0.671875 -1.40625q-0.671875 -0.515625 -1.796875 -0.515625q-0.859375 0 -1.625 0.34375q-0.75 0.34375 -1.359375 0.890625l-0.84375 -0.984375q0.765625 -0.671875 1.734375 -1.09375q0.96875 -0.421875 2.15625 -0.421875q0.84375 0 1.578125 0.203125q0.734375 0.203125 1.265625 0.59375q0.546875 0.390625 0.84375 0.96875q0.3125 0.5625 0.3125 1.3125q0 1.09375 -0.71875 1.796875q-0.71875 0.703125 -1.859375 1.078125l0 0.078125q0.609375 0.140625 1.140625 0.40625q0.546875 0.25 0.953125 0.640625q0.421875 0.375 0.65625 0.890625q0.25 0.515625 0.25 1.140625q0 0.796875 -0.34375 1.453125q-0.34375 0.640625 -0.9375 1.09375q-0.59375 0.4375 -1.40625 0.6875q-0.796875 0.234375 -1.703125 0.234375q-1.578125 0 -2.640625 -0.515625q-1.0625 -0.53125 -1.734375 -1.203125l0.796875 -1.03125z" fill-rule="nonzero"></path><path shape-rendering="crispEdges" fill="#b7b7b7" d="m169.76378 4.8372703l87.895004 0l0 50.67454l-87.895004 0l0 -50.67454z" fill-rule="nonzero"></path><path stroke="#000000" stroke-width="2.0" stroke-linecap="butt" d="m169.76378 3.8372703l0 253.43047" fill-rule="nonzero"></path><path stroke="#000000" stroke-width="2.0" stroke-linecap="butt" d="m257.65878 3.8372703l0 253.43047" fill-rule="nonzero"></path><path stroke="#000000" stroke-width="2.0" stroke-linecap="butt" d="m168.76378 4.8372703l89.895004 0" fill-rule="nonzero"></path><path stroke="#000000" stroke-width="2.0" stroke-linecap="butt" d="m168.76378 55.51181l89.895004 0" fill-rule="nonzero"></path><path stroke="#000000" stroke-width="2.0" stroke-linecap="butt" d="m168.76378 105.70079l89.895004 0" fill-rule="nonzero"></path><path stroke="#000000" stroke-width="2.0" stroke-linecap="butt" d="m168.76378 155.88977l89.895004 0" fill-rule="nonzero"></path><path stroke="#000000" stroke-width="2.0" stroke-linecap="butt" d="m168.76378 206.07874l89.895004 0" fill-rule="nonzero"></path><path stroke="#000000" stroke-width="2.0" stroke-linecap="butt" d="m168.76378 256.26773l89.895004 0" fill-rule="nonzero"></path><path fill="#000000" d="m192.55815 24.703917l3.359375 0q1.359375 0 2.453125 0.359375q1.109375 0.359375 1.875 1.109375q0.78125 0.75 1.203125 1.921875q0.4375 1.15625 0.4375 2.75q0 1.5937481 -0.4375 2.781248q-0.421875 1.171875 -1.1875 1.9375q-0.765625 0.765625 -1.828125 1.15625q-1.0625 0.375 -2.359375 0.375l-3.515625 0l0 -12.390623zm3.21875 10.124998q0.71875 0 1.3125 -0.203125q0.59375 -0.203125 1.015625 -0.671875q0.4375 -0.46875 0.671875 -1.21875q0.234375 -0.7656231 0.234375 -1.8906231q0 -1.109375 -0.234375 -1.859375q-0.234375 -0.75 -0.671875 -1.1875q-0.421875 -0.453125 -1.015625 -0.640625q-0.59375 -0.1875 -1.3125 -0.1875l-0.40625 0l0 7.859373l0.40625 0zm7.896881 -0.359375q0 -0.796875 0.34375 -1.390625q0.34375 -0.59375 1.09375 -1.015625q0.75 -0.4218731 1.921875 -0.6718731q1.1875 -0.265625 2.859375 -0.359375q-0.078125 -0.640625 -0.5625 -1.0q-0.484375 -0.359375 -1.453125 -0.359375q-0.6875 0 -1.390625 0.234375q-0.6875 0.234375 -1.484375 0.625l-0.984375 -1.8125q0.96875 -0.5625 2.078125 -0.921875q1.109375 -0.359375 2.328125 -0.359375q1.984375 0 3.125 1.046875q1.140625 1.046875 1.140625 3.21875l0 5.390623l-2.28125 0l-0.21875 -1.0625l-0.078125 0q-0.71875 0.546875 -1.578125 0.921875q-0.84375 0.375 -1.765625 0.375q-0.71875 0 -1.296875 -0.21875q-0.5625 -0.21875 -0.96875 -0.609375q-0.390625 -0.390625 -0.609375 -0.90625q-0.21875 -0.515625 -0.21875 -1.125zm2.6875 -0.203125q0 0.453125 0.34375 0.671875q0.359375 0.21875 0.96875 0.21875q0.625 0 1.171875 -0.25q0.546875 -0.265625 1.046875 -0.640625l0 -1.5625q-1.046875 0.0625 -1.734375 0.203125q-0.6875 0.125 -1.09375 0.328125q-0.390625 0.1875 -0.546875 0.453125q-0.15625 0.265625 -0.15625 0.578125zm10.662506 -4.406248l-2.375 0l0 -2.078125l2.5 -0.109375l0.359375 -2.515625l2.296875 0l0 2.515625l4.0 0l0 2.1875l-4.0 0l0 3.296873q0 1.09375 0.46875 1.546875q0.484375 0.4375 1.515625 0.4375q0.546875 0 1.0 -0.09375q0.453125 -0.09375 0.875 -0.25l0.5 2.015625q-0.625 0.1875 -1.40625 0.34375q-0.765625 0.171875 -1.671875 0.171875q-1.125 0 -1.90625 -0.296875q-0.78125 -0.3125 -1.265625 -0.859375q-0.484375 -0.546875 -0.6875 -1.296875q-0.203125 -0.765625 -0.203125 -1.6875l0 -3.328123zm9.037506 4.609373q0 -0.796875 0.34375 -1.390625q0.34375 -0.59375 1.09375 -1.015625q0.75 -0.4218731 1.921875 -0.6718731q1.1875 -0.265625 2.859375 -0.359375q-0.078125 -0.640625 -0.5625 -1.0q-0.484375 -0.359375 -1.453125 -0.359375q-0.6875 0 -1.390625 0.234375q-0.6875 0.234375 -1.484375 0.625l-0.984375 -1.8125q0.96875 -0.5625 2.078125 -0.921875q1.109375 -0.359375 2.328125 -0.359375q1.984375 0 3.125 1.046875q1.140625 1.046875 1.140625 3.21875l0 5.390623l-2.28125 0l-0.21875 -1.0625l-0.078125 0q-0.71875 0.546875 -1.578125 0.921875q-0.84375 0.375 -1.765625 0.375q-0.71875 0 -1.296875 -0.21875q-0.5625 -0.21875 -0.96875 -0.609375q-0.390625 -0.390625 -0.609375 -0.90625q-0.21875 -0.515625 -0.21875 -1.125zm2.6875 -0.203125q0 0.453125 0.34375 0.671875q0.359375 0.21875 0.96875 0.21875q0.625 0 1.171875 -0.25q0.546875 -0.265625 1.046875 -0.640625l0 -1.5625q-1.046875 0.0625 -1.734375 0.203125q-0.6875 0.125 -1.09375 0.328125q-0.390625 0.1875 -0.546875 0.453125q-0.15625 0.265625 -0.15625 0.578125z" fill-rule="nonzero"></path><path fill="#000000" d="m207.2519 82.74505l-3.25 -4.453125l1.734375 0l1.453125 2.03125q0.25 0.375 0.515625 0.78125q0.28125 0.40625 0.5625 0.78125l0.078125 0q0.265625 -0.375 0.53125 -0.796875q0.265625 -0.421875 0.515625 -0.796875l1.390625 -2.0l1.65625 0l-3.296875 4.578125l3.546875 4.65625l-1.71875 0l-1.609375 -2.125q-0.28125 -0.40625 -0.609375 -0.84375q-0.3125 -0.4375 -0.609375 -0.828125l-0.078125 0q-0.28125 0.421875 -0.578125 0.828125q-0.28125 0.40625 -0.5625 0.84375l-1.515625 2.125l-1.671875 0l3.515625 -4.78125zm12.162506 5.015625q-2.03125 0 -3.203125 -1.640625q-1.15625 -1.65625 -1.15625 -4.6875q0 -3.0625 1.15625 -4.65625q1.171875 -1.59375 3.203125 -1.59375q2.03125 0 3.1875 1.59375q1.15625 1.59375 1.15625 4.65625q0 3.03125 -1.15625 4.6875q-1.15625 1.640625 -3.1875 1.640625zm0 -11.328125q-0.625 0 -1.15625 0.28125q-0.53125 0.28125 -0.921875 0.90625q-0.390625 0.609375 -0.609375 1.5625q-0.203125 0.9375 -0.203125 2.25q0 2.59375 0.796875 3.828125q0.8125 1.234375 2.09375 1.234375q1.265625 0 2.078125 -1.234375q0.8125 -1.234375 0.8125 -3.828125q0 -1.3125 -0.21875 -2.25q-0.203125 -0.953125 -0.59375 -1.5625q-0.390625 -0.625 -0.921875 -0.90625q-0.53125 -0.28125 -1.15625 -0.28125zm0 6.140625q-0.484375 0 -0.84375 -0.328125q-0.34375 -0.34375 -0.34375 -0.953125q0 -0.59375 0.34375 -0.921875q0.359375 -0.328125 0.84375 -0.328125q0.46875 0 0.8125 0.328125q0.359375 0.328125 0.359375 0.921875q0 0.609375 -0.359375 0.953125q-0.34375 0.328125 -0.8125 0.328125z" fill-rule="nonzero"></path><path fill="#000000" d="m207.2519 132.93402l-3.25 -4.453125l1.734375 0l1.453125 2.03125q0.25 0.375 0.515625 0.78125q0.28125 0.40625 0.5625 0.78125l0.078125 0q0.265625 -0.375 0.53125 -0.796875q0.265625 -0.421875 0.515625 -0.796875l1.390625 -2.0l1.65625 0l-3.296875 4.578125l3.546875 4.65625l-1.71875 0l-1.609375 -2.125q-0.28125 -0.40625 -0.609375 -0.84375q-0.3125 -0.4375 -0.609375 -0.828125l-0.078125 0q-0.28125 0.421875 -0.578125 0.828125q-0.28125 0.40625 -0.5625 0.84375l-1.515625 2.125l-1.671875 0l3.515625 -4.78125zm16.490631 3.484375l0 1.296875l-8.171875 0l0 -1.296875l3.4375 0l0 -8.921867l-2.578125 0l0 -1.015625q0.96875 -0.140625 1.6875 -0.359375q0.71875 -0.21875 1.296875 -0.53125l1.15625 0l0 10.828117l3.171875 0z" fill-rule="nonzero"></path><path fill="#000000" d="m207.2519 183.123l-3.25 -4.453125l1.734375 0l1.453125 2.03125q0.25 0.375 0.515625 0.78125q0.28125 0.40625 0.5625 0.78125l0.078125 0q0.265625 -0.375 0.53125 -0.796875q0.265625 -0.421875 0.515625 -0.796875l1.390625 -2.0l1.65625 0l-3.296875 4.578125l3.546875 4.65625l-1.71875 0l-1.609375 -2.125q-0.28125 -0.40625 -0.609375 -0.84375q-0.3125 -0.4375 -0.609375 -0.828125l-0.078125 0q-0.28125 0.421875 -0.578125 0.828125q-0.28125 0.40625 -0.5625 0.84375l-1.515625 2.125l-1.671875 0l3.515625 -4.78125zm7.850006 3.84375q1.53125 -1.359375 2.71875 -2.453125q1.1875 -1.109375 2.0 -2.03125q0.8125 -0.921875 1.21875 -1.71875q0.421875 -0.796875 0.421875 -1.5625q0 -1.046875 -0.65625 -1.703125q-0.640625 -0.671875 -1.984375 -0.671875q-0.859375 0 -1.59375 0.4375q-0.71875 0.421875 -1.3125 1.03125l-0.890625 -0.890625q0.8125 -0.84375 1.75 -1.34375q0.953125 -0.5 2.234375 -0.5q0.921875 0 1.640625 0.25q0.734375 0.25 1.25 0.71875q0.515625 0.46875 0.78125 1.140625q0.28125 0.65625 0.28125 1.453125q0 0.859375 -0.40625 1.734375q-0.40625 0.859375 -1.15625 1.78125q-0.734375 0.921875 -1.765625 1.921875q-1.015625 0.984375 -2.25 2.109375q0.546875 -0.03125 1.125 -0.0625q0.578125 -0.046875 1.125 -0.046875l4.0 0l0 1.34375l-8.53125 0l0 -0.9375z" fill-rule="nonzero"></path><path fill="#000000" d="m207.2519 233.31198l-3.25 -4.453125l1.734375 0l1.453125 2.03125q0.25 0.375 0.515625 0.78125q0.28125 0.40625 0.5625 0.78125l0.078125 0q0.265625 -0.375 0.53125 -0.796875q0.265625 -0.421875 0.515625 -0.796875l1.390625 -2.0l1.65625 0l-3.296875 4.578125l3.546875 4.65625l-1.71875 0l-1.609375 -2.125q-0.28125 -0.40625 -0.609375 -0.84375q-0.3125 -0.4375 -0.609375 -0.828125l-0.078125 0q-0.28125 0.421875 -0.578125 0.828125q-0.28125 0.40625 -0.5625 0.84375l-1.515625 2.125l-1.671875 0l3.515625 -4.78125zm8.334381 2.265625q0.609375 0.578125 1.453125 1.015625q0.859375 0.4375 2.03125 0.4375q0.625 0 1.15625 -0.15625q0.53125 -0.171875 0.921875 -0.453125q0.390625 -0.28125 0.609375 -0.6875q0.21875 -0.421875 0.21875 -0.921875q0 -0.53125 -0.234375 -0.984375q-0.234375 -0.453125 -0.78125 -0.765625q-0.53125 -0.328125 -1.375 -0.5q-0.828125 -0.171875 -2.015625 -0.171875l0 -1.1875q1.078125 0 1.828125 -0.171875q0.75 -0.171875 1.21875 -0.46875q0.484375 -0.3125 0.703125 -0.734375q0.21875 -0.421875 0.21875 -0.890625q0 -0.890625 -0.671875 -1.40625q-0.671875 -0.515625 -1.796875 -0.515625q-0.859375 0 -1.625 0.34375q-0.75 0.34375 -1.359375 0.890625l-0.84375 -0.984375q0.765625 -0.671875 1.734375 -1.09375q0.96875 -0.421875 2.15625 -0.421875q0.84375 0 1.578125 0.203125q0.734375 0.203125 1.265625 0.59375q0.546875 0.390625 0.84375 0.96875q0.3125 0.5625 0.3125 1.3125q0 1.09375 -0.71875 1.796875q-0.71875 0.703125 -1.859375 1.078125l0 0.078125q0.609375 0.140625 1.140625 0.40625q0.546875 0.25 0.953125 0.640625q0.421875 0.375 0.65625 0.890625q0.25 0.515625 0.25 1.140625q0 0.796875 -0.34375 1.453125q-0.34375 0.640625 -0.9375 1.09375q-0.59375 0.4375 -1.40625 0.6875q-0.796875 0.234375 -1.703125 0.234375q-1.578125 0 -2.640625 -0.515625q-1.0625 -0.53125 -1.734375 -1.203125l0.796875 -1.03125z" fill-rule="nonzero"></path><path fill="#000000" fill-opacity="0.0" d="m102.61155 129.40945l60.125984 0" fill-rule="nonzero"></path><path stroke="#000000" stroke-width="2.0" stroke-linejoin="round" stroke-linecap="butt" d="m102.61155 129.40945l48.125984 0" fill-rule="evenodd"></path><path fill="#000000" stroke="#000000" stroke-width="2.0" stroke-linecap="butt" d="m150.73753 132.71292l9.076187 -3.3034668l-9.076187 -3.3034668z" fill-rule="evenodd"></path></g></svg>

